<svg xmlns="http://www.w3.org/2000/svg" width="1864.0125732421875" height="1067.6297607421875" viewBox="-605.7607421875 -260.5552978515625 1864.0125732421875 1067.6297607421875"><title>Neo4j Graph Visualization</title><desc>Created using Neo4j (http://www.neo4j.com/)</desc><g class="layer relationships"><g class="relationship" transform="translate(-576.7607240298024 233.42807750208885) rotate(360.14176708158965)"><path class="outline" fill="#A5ABB6" stroke="none" d="M 25 0.5 L 32.68408429146156 0.5 L 32.68408429146156 -0.5 L 25 -0.5 Z M 105.68408429146156 0.5 L 113.36816858292312 0.5 L 113.36816858292312 3.5 L 120.36816858292312 0 L 113.36816858292312 -3.5 L 113.36816858292312 -0.5 L 105.68408429146156 -0.5 Z"/><text text-anchor="middle" pointer-events="none" font-size="8px" fill="#000000" x="69.18408429146156" y="3" font-family="sans-serif">HAS_HARDWARE</text></g><g class="relationship" transform="translate(-431.39300043112473 233.7877619354473) rotate(360.74815944953457)"><path class="outline" fill="#A5ABB6" stroke="none" d="M 25 0.5 L 55.82143406580224 0.5 L 55.82143406580224 -0.5 L 25 -0.5 Z M 128.82143406580224 0.5 L 159.64286813160447 0.5 L 159.64286813160447 3.5 L 166.64286813160447 0 L 159.64286813160447 -3.5 L 159.64286813160447 -0.5 L 128.82143406580224 -0.5 Z"/><text text-anchor="middle" pointer-events="none" font-size="8px" fill="#000000" x="92.32143406580224" y="3" font-family="sans-serif">HAS_HARDWARE</text></g><g class="relationship" transform="translate(-239.76647032472673 236.29013382812786) rotate(316.23813829872375)"><path class="outline" fill="#A5ABB6" stroke="none" d="M 25 0.5 L 90.35837582957791 0.5 L 90.35837582957791 -0.5 L 25 -0.5 Z M 163.3583758295779 0.5 L 228.71675165915582 0.5 L 228.71675165915582 3.5 L 235.71675165915582 0 L 228.71675165915582 -3.5 L 228.71675165915582 -0.5 L 163.3583758295779 -0.5 Z"/><text text-anchor="middle" pointer-events="none" font-size="8px" fill="#000000" x="126.85837582957791" y="3" font-family="sans-serif">HAS_HARDWARE</text></g><g class="relationship" transform="translate(-239.76647032472673 236.29013382812786) rotate(328.38349484554385)"><path class="outline" fill="#A5ABB6" stroke="none" d="M 25 0.5 L 69.21951093874979 0.5 L 69.21951093874979 -0.5 L 25 -0.5 Z M 142.2195109387498 0.5 L 186.43902187749958 0.5 L 186.43902187749958 3.5 L 193.43902187749958 0 L 186.43902187749958 -3.5 L 186.43902187749958 -0.5 L 142.2195109387498 -0.5 Z"/><text text-anchor="middle" pointer-events="none" font-size="8px" fill="#000000" x="105.71951093874979" y="3" font-family="sans-serif">HAS_HARDWARE</text></g><g class="relationship" transform="translate(-239.76647032472673 236.29013382812786) rotate(395.9221445422704)"><path class="outline" fill="#A5ABB6" stroke="none" d="M 25 0.5 L 78.69810066366306 0.5 L 78.69810066366306 -0.5 L 25 -0.5 Z M 151.69810066366307 0.5 L 205.3962013273261 0.5 L 205.3962013273261 3.5 L 212.3962013273261 0 L 205.3962013273261 -3.5 L 205.3962013273261 -0.5 L 151.69810066366307 -0.5 Z"/><text text-anchor="middle" pointer-events="none" font-size="8px" fill="#000000" x="115.19810066366306" y="3" font-family="sans-serif">HAS_HARDWARE</text></g><g class="relationship" transform="translate(-239.76647032472673 236.29013382812786) rotate(359.2045751636907)"><path class="outline" fill="#A5ABB6" stroke="none" d="M 25 0.5 L 56.12789838354871 0.5 L 56.12789838354871 -0.5 L 25 -0.5 Z M 129.1278983835487 0.5 L 160.25579676709742 0.5 L 160.25579676709742 3.5 L 167.25579676709742 0 L 160.25579676709742 -3.5 L 160.25579676709742 -0.5 L 129.1278983835487 -0.5 Z"/><text text-anchor="middle" pointer-events="none" font-size="8px" fill="#000000" x="92.62789838354871" y="3" font-family="sans-serif">HAS_HARDWARE</text></g><g class="relationship" transform="translate(-47.52920014812064 233.62117418099652) rotate(316.7077256478613)"><path class="outline" fill="#A5ABB6" stroke="none" d="M 25 0.5 L 130.58532100938137 0.5 L 130.58532100938137 -0.5 L 25 -0.5 Z M 203.58532100938137 0.5 L 309.17064201876275 0.5 L 309.17064201876275 3.5 L 316.17064201876275 0 L 309.17064201876275 -3.5 L 309.17064201876275 -0.5 L 203.58532100938137 -0.5 Z"/><text text-anchor="middle" pointer-events="none" font-size="8px" fill="#000000" x="167.08532100938137" y="3" font-family="sans-serif">HAS_HARDWARE</text></g><g class="relationship" transform="translate(-47.52920014812064 233.62117418099652) rotate(395.6131151506997)"><path class="outline" fill="#A5ABB6" stroke="none" d="M 25 0.5 L 112.46301387590654 0.5 L 112.46301387590654 -0.5 L 25 -0.5 Z M 185.46301387590654 0.5 L 272.9260277518131 0.5 L 272.9260277518131 3.5 L 279.9260277518131 0 L 272.9260277518131 -3.5 L 272.9260277518131 -0.5 L 185.46301387590654 -0.5 Z"/><text text-anchor="middle" pointer-events="none" font-size="8px" fill="#000000" x="148.96301387590654" y="3" font-family="sans-serif">HAS_HARDWARE</text></g><g class="relationship" transform="translate(200.3657473626706 411.1823675739267) rotate(360.1091932240981)"><path class="outline" fill="#A5ABB6" stroke="none" d="M 25 0.5 L 59.48889653669944 0.5 L 59.48889653669944 -0.5 L 25 -0.5 Z M 132.48889653669943 0.5 L 166.97779307339889 0.5 L 166.97779307339889 3.5 L 173.97779307339889 0 L 166.97779307339889 -3.5 L 166.97779307339889 -0.5 L 132.48889653669943 -0.5 Z"/><text text-anchor="middle" pointer-events="none" font-size="8px" fill="#000000" x="95.98889653669944" y="3" font-family="sans-serif">HAS_HARDWARE</text></g><g class="relationship" transform="translate(-47.52920014812064 233.62117418099652) rotate(384.2974824047675)"><path class="outline" fill="#A5ABB6" stroke="none" d="M 25 0.5 L 97.87587849805749 0.5 L 97.87587849805749 -0.5 L 25 -0.5 Z M 170.8758784980575 0.5 L 243.75175699611498 0.5 L 243.75175699611498 3.5 L 250.75175699611498 0 L 243.75175699611498 -3.5 L 243.75175699611498 -0.5 L 170.8758784980575 -0.5 Z"/><text text-anchor="middle" pointer-events="none" font-size="8px" fill="#000000" x="134.3758784980575" y="3" font-family="sans-serif">HAS_HARDWARE</text></g><g class="relationship" transform="translate(203.79684063747408 347.0859383568499) rotate(359.94679726757136)"><path class="outline" fill="#A5ABB6" stroke="none" d="M 25 0.5 L 60.69935446229614 0.5 L 60.69935446229614 -0.5 L 25 -0.5 Z M 133.69935446229613 0.5 L 169.39870892459228 0.5 L 169.39870892459228 3.5 L 176.39870892459228 0 L 169.39870892459228 -3.5 L 169.39870892459228 -0.5 L 133.69935446229613 -0.5 Z"/><text text-anchor="middle" pointer-events="none" font-size="8px" fill="#000000" x="97.19935446229614" y="3" font-family="sans-serif">HAS_HARDWARE</text></g><g class="relationship" transform="translate(-47.52920014812064 233.62117418099652) rotate(302.54565855457366)"><path class="outline" fill="#A5ABB6" stroke="none" d="M 25 0.5 L 187.84976141706198 0.5 L 187.84976141706198 -0.5 L 25 -0.5 Z M 260.849761417062 0.5 L 423.69952283412397 0.5 L 423.69952283412397 3.5 L 430.69952283412397 0 L 423.69952283412397 -3.5 L 423.69952283412397 -0.5 L 260.849761417062 -0.5 Z"/><text text-anchor="middle" pointer-events="none" font-size="8px" fill="#000000" x="224.34976141706198" y="3" font-family="sans-serif">HAS_HARDWARE</text></g><g class="relationship" transform="translate(-47.52920014812064 233.62117418099652) rotate(420.03021030008836)"><path class="outline" fill="#A5ABB6" stroke="none" d="M 25 0.5 L 203.1640963696379 0.5 L 203.1640963696379 -0.5 L 25 -0.5 Z M 276.1640963696379 0.5 L 454.3281927392758 0.5 L 454.3281927392758 3.5 L 461.3281927392758 0 L 454.3281927392758 -3.5 L 454.3281927392758 -0.5 L 276.1640963696379 -0.5 Z"/><text text-anchor="middle" pointer-events="none" font-size="8px" fill="#000000" x="239.6640963696379" y="3" font-family="sans-serif">HAS_HARDWARE</text></g><g class="relationship" transform="translate(-47.52920014812064 233.62117418099652) rotate(308.5687759456422)"><path class="outline" fill="#A5ABB6" stroke="none" d="M 25 0.5 L 154.50464724647694 0.5 L 154.50464724647694 -0.5 L 25 -0.5 Z M 227.50464724647694 0.5 L 357.00929449295387 0.5 L 357.00929449295387 3.5 L 364.00929449295387 0 L 357.00929449295387 -3.5 L 357.00929449295387 -0.5 L 227.50464724647694 -0.5 Z"/><text text-anchor="middle" pointer-events="none" font-size="8px" fill="#000000" x="191.00464724647694" y="3" font-family="sans-serif">HAS_HARDWARE</text></g><g class="relationship" transform="translate(-47.52920014812064 233.62117418099652) rotate(417.0508981202586)"><path class="outline" fill="#A5ABB6" stroke="none" d="M 25 0.5 L 184.5277547993232 0.5 L 184.5277547993232 -0.5 L 25 -0.5 Z M 257.5277547993232 0.5 L 417.0555095986464 0.5 L 417.0555095986464 3.5 L 424.0555095986464 0 L 417.0555095986464 -3.5 L 417.0555095986464 -0.5 L 257.5277547993232 -0.5 Z"/><text text-anchor="middle" pointer-events="none" font-size="8px" fill="#000000" x="221.0277547993232" y="3" font-family="sans-serif">HAS_HARDWARE</text></g><g class="relationship" transform="translate(-47.52920014812064 233.62117418099652) rotate(345.98746519954057)"><path class="outline" fill="#A5ABB6" stroke="none" d="M 25 0.5 L 89.7426083715452 0.5 L 89.7426083715452 -0.5 L 25 -0.5 Z M 162.7426083715452 0.5 L 227.4852167430904 0.5 L 227.4852167430904 3.5 L 234.4852167430904 0 L 227.4852167430904 -3.5 L 227.4852167430904 -0.5 L 162.7426083715452 -0.5 Z"/><text text-anchor="middle" pointer-events="none" font-size="8px" fill="#000000" x="126.2426083715452" y="3" font-family="sans-serif">HAS_HARDWARE</text></g><g class="relationship" transform="translate(-47.52920014812064 233.62117418099652) rotate(335.5124414547288)"><path class="outline" fill="#A5ABB6" stroke="none" d="M 25 0.5 L 98.73984059179278 0.5 L 98.73984059179278 -0.5 L 25 -0.5 Z M 171.73984059179278 0.5 L 245.47968118358557 0.5 L 245.47968118358557 3.5 L 252.47968118358557 0 L 245.47968118358557 -3.5 L 245.47968118358557 -0.5 L 171.73984059179278 -0.5 Z"/><text text-anchor="middle" pointer-events="none" font-size="8px" fill="#000000" x="135.23984059179278" y="3" font-family="sans-serif">HAS_HARDWARE</text></g><g class="relationship" transform="translate(-47.52920014812064 233.62117418099652) rotate(412.58158014532665)"><path class="outline" fill="#A5ABB6" stroke="none" d="M 25 0.5 L 159.80120925307568 0.5 L 159.80120925307568 -0.5 L 25 -0.5 Z M 232.80120925307568 0.5 L 367.60241850615137 0.5 L 367.60241850615137 3.5 L 374.60241850615137 0 L 367.60241850615137 -3.5 L 367.60241850615137 -0.5 L 232.80120925307568 -0.5 Z"/><text text-anchor="middle" pointer-events="none" font-size="8px" fill="#000000" x="196.30120925307568" y="3" font-family="sans-serif">HAS_HARDWARE</text></g><g class="relationship" transform="translate(-47.52920014812064 233.62117418099652) rotate(405.78238675767557)"><path class="outline" fill="#A5ABB6" stroke="none" d="M 25 0.5 L 134.58595948938742 0.5 L 134.58595948938742 -0.5 L 25 -0.5 Z M 207.58595948938742 0.5 L 317.17191897877484 0.5 L 317.17191897877484 3.5 L 324.17191897877484 0 L 317.17191897877484 -3.5 L 317.17191897877484 -0.5 L 207.58595948938742 -0.5 Z"/><text text-anchor="middle" pointer-events="none" font-size="8px" fill="#000000" x="171.08595948938742" y="3" font-family="sans-serif">HAS_HARDWARE</text></g><g class="relationship" transform="translate(195.97821734904866 483.8713822272225) rotate(359.88790168159676)"><path class="outline" fill="#A5ABB6" stroke="none" d="M 25 0.5 L 55.41811709702456 0.5 L 55.41811709702456 -0.5 L 25 -0.5 Z M 128.41811709702455 0.5 L 158.83623419404913 0.5 L 158.83623419404913 3.5 L 165.83623419404913 0 L 158.83623419404913 -3.5 L 158.83623419404913 -0.5 L 128.41811709702455 -0.5 Z"/><text text-anchor="middle" pointer-events="none" font-size="8px" fill="#000000" x="91.91811709702456" y="3" font-family="sans-serif">HAS_HARDWARE</text></g><g class="relationship" transform="translate(-47.52920014812064 233.62117418099652) rotate(358.7849289572256)"><path class="outline" fill="#A5ABB6" stroke="none" d="M 25 0.5 L 86.96120226112858 0.5 L 86.96120226112858 -0.5 L 25 -0.5 Z M 159.96120226112856 0.5 L 221.92240452225715 0.5 L 221.92240452225715 3.5 L 228.92240452225715 0 L 221.92240452225715 -3.5 L 221.92240452225715 -0.5 L 159.96120226112856 -0.5 Z"/><text text-anchor="middle" pointer-events="none" font-size="8px" fill="#000000" x="123.46120226112858" y="3" font-family="sans-serif">HAS_HARDWARE</text></g><g class="relationship" transform="translate(206.336107435023 228.2366478247912) rotate(362.67535518046265)"><path class="outline" fill="#A5ABB6" stroke="none" d="M 25 0.5 L 59.03939095789249 0.5 L 59.03939095789249 -0.5 L 25 -0.5 Z M 132.0393909578925 0.5 L 166.078781915785 0.5 L 166.078781915785 3.5 L 173.078781915785 0 L 166.078781915785 -3.5 L 166.078781915785 -0.5 L 132.0393909578925 -0.5 Z"/><text text-anchor="middle" pointer-events="none" font-size="8px" fill="#000000" x="95.5393909578925" y="3" font-family="sans-serif">HAS_HARDWARE</text></g><g class="relationship" transform="translate(404.198992314263 237.4823296550141) rotate(381.6227849789999)"><path class="outline" fill="#A5ABB6" stroke="none" d="M 25 0.5 L 53.22554356785356 0.5 L 53.22554356785356 -0.5 L 25 -0.5 Z M 126.22554356785356 0.5 L 154.45108713570713 0.5 L 154.45108713570713 3.5 L 161.45108713570713 0 L 154.45108713570713 -3.5 L 154.45108713570713 -0.5 L 126.22554356785356 -0.5 Z"/><text text-anchor="middle" pointer-events="none" font-size="8px" fill="#000000" x="89.72554356785356" y="3" font-family="sans-serif">HAS_HARDWARE</text></g><g class="relationship" transform="translate(404.198992314263 237.4823296550141) rotate(355.14320791747787)"><path class="outline" fill="#A5ABB6" stroke="none" d="M 25 0.5 L 50.516662263303644 0.5 L 50.516662263303644 -0.5 L 25 -0.5 Z M 123.51666226330364 0.5 L 149.0333245266073 0.5 L 149.0333245266073 3.5 L 156.0333245266073 0 L 149.0333245266073 -3.5 L 149.0333245266073 -0.5 L 123.51666226330364 -0.5 Z"/><text text-anchor="middle" pointer-events="none" font-size="8px" fill="#000000" x="87.01666226330364" y="3" font-family="sans-serif">HAS_HARDWARE</text></g><g class="relationship" transform="translate(404.198992314263 237.4823296550141) rotate(331.36047920081444)"><path class="outline" fill="#A5ABB6" stroke="none" d="M 25 0.5 L 61.68871152842135 0.5 L 61.68871152842135 -0.5 L 25 -0.5 Z M 134.68871152842135 0.5 L 171.3774230568427 0.5 L 171.3774230568427 3.5 L 178.3774230568427 0 L 171.3774230568427 -3.5 L 171.3774230568427 -0.5 L 134.68871152842135 -0.5 Z"/><text text-anchor="middle" pointer-events="none" font-size="8px" fill="#000000" x="98.18871152842135" y="3" font-family="sans-serif">HAS_HARDWARE</text></g><g class="relationship" transform="translate(206.336107435023 228.2366478247912) rotate(342.3742019620812)"><path class="outline" fill="#A5ABB6" stroke="none" d="M 25 0.5 L 63.72108302334527 0.5 L 63.72108302334527 -0.5 L 25 -0.5 Z M 136.72108302334527 0.5 L 175.44216604669055 0.5 L 175.44216604669055 3.5 L 182.44216604669055 0 L 175.44216604669055 -3.5 L 175.44216604669055 -0.5 L 136.72108302334527 -0.5 Z"/><text text-anchor="middle" pointer-events="none" font-size="8px" fill="#000000" x="100.22108302334527" y="3" font-family="sans-serif">HAS_HARDWARE</text></g><g class="relationship" transform="translate(-47.52920014812064 233.62117418099652) rotate(297.359643093906)"><path class="outline" fill="#A5ABB6" stroke="none" d="M 25 0.5 L 221.8826086508314 0.5 L 221.8826086508314 -0.5 L 25 -0.5 Z M 294.8826086508314 0.5 L 491.7652173016628 0.5 L 491.7652173016628 3.5 L 498.7652173016628 0 L 491.7652173016628 -3.5 L 491.7652173016628 -0.5 L 294.8826086508314 -0.5 Z"/><text text-anchor="middle" pointer-events="none" font-size="8px" fill="#000000" x="258.3826086508314" y="3" font-family="sans-serif">HAS_HARDWARE</text></g><g class="relationship" transform="translate(-47.52920014812064 233.62117418099652) rotate(324.3131631577297)"><path class="outline" fill="#A5ABB6" stroke="none" d="M 25 0.5 L 113.75361298194065 0.5 L 113.75361298194065 -0.5 L 25 -0.5 Z M 186.75361298194065 0.5 L 275.5072259638813 0.5 L 275.5072259638813 3.5 L 282.5072259638813 0 L 275.5072259638813 -3.5 L 275.5072259638813 -0.5 L 186.75361298194065 -0.5 Z"/><text text-anchor="middle" pointer-events="none" font-size="8px" fill="#000000" x="150.25361298194065" y="3" font-family="sans-serif">HAS_HARDWARE</text></g><g class="relationship" transform="translate(202.2335712129069 54.235410916291926) rotate(363.7047004084437)"><path class="outline" fill="#A5ABB6" stroke="none" d="M 25 0.5 L 65.88158338974716 0.5 L 65.88158338974716 -0.5 L 25 -0.5 Z M 138.88158338974716 0.5 L 179.76316677949433 0.5 L 179.76316677949433 3.5 L 186.76316677949433 0 L 179.76316677949433 -3.5 L 179.76316677949433 -0.5 L 138.88158338974716 -0.5 Z"/><text text-anchor="middle" pointer-events="none" font-size="8px" fill="#000000" x="102.38158338974716" y="3" font-family="sans-serif">HAS_HARDWARE</text></g><g class="relationship" transform="translate(413.55422091554436 67.91831315723182) rotate(359.1792088893744)"><path class="outline" fill="#A5ABB6" stroke="none" d="M 25 0.5 L 46.143400041465 0.5 L 46.143400041465 -0.5 L 25 -0.5 Z M 119.143400041465 0.5 L 140.28680008293 0.5 L 140.28680008293 3.5 L 147.28680008293 0 L 140.28680008293 -3.5 L 140.28680008293 -0.5 L 119.143400041465 -0.5 Z"/><text text-anchor="middle" pointer-events="none" font-size="8px" fill="#000000" x="82.643400041465" y="3" font-family="sans-serif">HAS_HARDWARE</text></g><g class="relationship" transform="translate(413.55422091554436 67.91831315723182) rotate(335.147128395643)"><path class="outline" fill="#A5ABB6" stroke="none" d="M 25 0.5 L 52.034050497252025 0.5 L 52.034050497252025 -0.5 L 25 -0.5 Z M 125.03405049725203 0.5 L 152.06810099450405 0.5 L 152.06810099450405 3.5 L 159.06810099450405 0 L 152.06810099450405 -3.5 L 152.06810099450405 -0.5 L 125.03405049725203 -0.5 Z"/><text text-anchor="middle" pointer-events="none" font-size="8px" fill="#000000" x="88.53405049725203" y="3" font-family="sans-serif">HAS_HARDWARE</text></g><g class="relationship" transform="translate(413.55422091554436 67.91831315723182) rotate(318.4767949877044)"><path class="outline" fill="#A5ABB6" stroke="none" d="M 25 0.5 L 72.79097332714433 0.5 L 72.79097332714433 -0.5 L 25 -0.5 Z M 145.79097332714434 0.5 L 193.58194665428866 0.5 L 193.58194665428866 3.5 L 200.58194665428866 0 L 193.58194665428866 -3.5 L 193.58194665428866 -0.5 L 145.79097332714434 -0.5 Z"/><text text-anchor="middle" pointer-events="none" font-size="8px" fill="#000000" x="109.29097332714433" y="3" font-family="sans-serif">HAS_HARDWARE</text></g><g class="relationship" transform="translate(582.4445585124512 -81.6252207141502) rotate(359.0442507647921)"><path class="outline" fill="#A5ABB6" stroke="none" d="M 25 0.5 L 43.095339775426055 0.5 L 43.095339775426055 -0.5 L 25 -0.5 Z M 116.09533977542605 0.5 L 134.1906795508521 0.5 L 134.1906795508521 3.5 L 141.1906795508521 0 L 134.1906795508521 -3.5 L 134.1906795508521 -0.5 L 116.09533977542605 -0.5 Z"/><text text-anchor="middle" pointer-events="none" font-size="8px" fill="#000000" x="79.59533977542605" y="3" font-family="sans-serif">HAS_HARDWARE</text></g><g class="relationship" transform="translate(748.6121169228927 -84.39731405430175) rotate(390.0269165090545)"><path class="outline" fill="#A5ABB6" stroke="none" d="M 25 0.5 L 32.99646433519818 0.5 L 32.99646433519818 -0.5 L 25 -0.5 Z M 105.99646433519818 0.5 L 113.99292867039637 0.5 L 113.99292867039637 3.5 L 120.99292867039637 0 L 113.99292867039637 -3.5 L 113.99292867039637 -0.5 L 105.99646433519818 -0.5 Z"/><text text-anchor="middle" pointer-events="none" font-size="8px" fill="#000000" x="69.49646433519818" y="3" font-family="sans-serif">HAS_HARDWARE</text></g><g class="relationship" transform="translate(875.0113955704286 -11.34146159098421) rotate(358.18804805837055)"><path class="outline" fill="#A5ABB6" stroke="none" d="M 25 0.5 L 49.3312624598595 0.5 L 49.3312624598595 -0.5 L 25 -0.5 Z M 122.3312624598595 0.5 L 146.662524919719 0.5 L 146.662524919719 3.5 L 153.662524919719 0 L 146.662524919719 -3.5 L 146.662524919719 -0.5 L 122.3312624598595 -0.5 Z"/><text text-anchor="middle" pointer-events="none" font-size="8px" fill="#000000" x="85.8312624598595" y="3" font-family="sans-serif">HAS_HARDWARE</text></g><g class="relationship" transform="translate(1053.5845867821552 -16.990637738826706) rotate(332.0329569127018)"><path class="outline" fill="#A5ABB6" stroke="none" d="M 25 0.5 L 58.38551835334364 0.5 L 58.38551835334364 -0.5 L 25 -0.5 Z M 131.38551835334363 0.5 L 164.77103670668728 0.5 L 164.77103670668728 3.5 L 171.77103670668728 0 L 164.77103670668728 -3.5 L 164.77103670668728 -0.5 L 131.38551835334363 -0.5 Z"/><text text-anchor="middle" pointer-events="none" font-size="8px" fill="#000000" x="94.88551835334364" y="3" font-family="sans-serif">HAS_HARDWARE</text></g><g class="relationship" transform="translate(1053.5845867821552 -16.990637738826706) rotate(375.5691568369324)"><path class="outline" fill="#A5ABB6" stroke="none" d="M 25 0.5 L 45.536486739223506 0.5 L 45.536486739223506 -0.5 L 25 -0.5 Z M 118.5364867392235 0.5 L 139.072973478447 0.5 L 139.072973478447 3.5 L 146.072973478447 0 L 139.072973478447 -3.5 L 139.072973478447 -0.5 L 118.5364867392235 -0.5 Z"/><text text-anchor="middle" pointer-events="none" font-size="8px" fill="#000000" x="82.0364867392235" y="3" font-family="sans-serif">HAS_HARDWARE</text></g><g class="relationship" transform="translate(748.6121169228927 -84.39731405430175) rotate(317.0198924886397)"><path class="outline" fill="#A5ABB6" stroke="none" d="M 25 0.5 L 43.75072550566394 0.5 L 43.75072550566394 -0.5 L 25 -0.5 Z M 116.75072550566394 0.5 L 135.50145101132787 0.5 L 135.50145101132787 3.5 L 142.50145101132787 0 L 135.50145101132787 -3.5 L 135.50145101132787 -0.5 L 116.75072550566394 -0.5 Z"/><text text-anchor="middle" pointer-events="none" font-size="8px" fill="#000000" x="80.25072550566394" y="3" font-family="sans-serif">HAS_HARDWARE</text></g><g class="relationship" transform="translate(871.1545771945 -198.59049038932542) rotate(360.4069826316026)"><path class="outline" fill="#A5ABB6" stroke="none" d="M 25 0.5 L 51.653200771990456 0.5 L 51.653200771990456 -0.5 L 25 -0.5 Z M 124.65320077199046 0.5 L 151.3064015439809 0.5 L 151.3064015439809 3.5 L 158.3064015439809 0 L 151.3064015439809 -3.5 L 151.3064015439809 -0.5 L 124.65320077199046 -0.5 Z"/><text text-anchor="middle" pointer-events="none" font-size="8px" fill="#000000" x="88.15320077199046" y="3" font-family="sans-serif">HAS_HARDWARE</text></g><g class="relationship" transform="translate(1054.4563543714448 -197.2884417048112) rotate(360.38613496856726)"><path class="outline" fill="#A5ABB6" stroke="none" d="M 25 0.5 L 47.39972917959511 0.5 L 47.39972917959511 -0.5 L 25 -0.5 Z M 120.39972917959511 0.5 L 142.79945835919023 0.5 L 142.79945835919023 3.5 L 149.79945835919023 0 L 142.79945835919023 -3.5 L 142.79945835919023 -0.5 L 120.39972917959511 -0.5 Z"/><text text-anchor="middle" pointer-events="none" font-size="8px" fill="#000000" x="83.89972917959511" y="3" font-family="sans-serif">HAS_HARDWARE</text></g><g class="relationship" transform="translate(-47.52920014812064 233.62117418099652) rotate(371.95579953634086)"><path class="outline" fill="#A5ABB6" stroke="none" d="M 25 0.5 L 86.7867572669114 0.5 L 86.7867572669114 -0.5 L 25 -0.5 Z M 159.7867572669114 0.5 L 221.5735145338228 0.5 L 221.5735145338228 3.5 L 228.5735145338228 0 L 221.5735145338228 -3.5 L 221.5735145338228 -0.5 L 159.7867572669114 -0.5 Z"/><text text-anchor="middle" pointer-events="none" font-size="8px" fill="#000000" x="123.2867572669114" y="3" font-family="sans-serif">HAS_HARDWARE</text></g><g class="relationship" transform="translate(-239.76647032472673 236.29013382812786) rotate(301.3016949480691)"><path class="outline" fill="#A5ABB6" stroke="none" d="M 25 0.5 L 138.30014476335037 0.5 L 138.30014476335037 -0.5 L 25 -0.5 Z M 211.30014476335037 0.5 L 324.60028952670075 0.5 L 324.60028952670075 3.5 L 331.60028952670075 0 L 324.60028952670075 -3.5 L 324.60028952670075 -0.5 L 211.30014476335037 -0.5 Z"/><text text-anchor="middle" pointer-events="none" font-size="8px" fill="#000000" x="174.80014476335037" y="3" font-family="sans-serif">HAS_HARDWARE</text></g><g class="relationship" transform="translate(-239.76647032472673 236.29013382812786) rotate(427.52046316573717)"><path class="outline" fill="#A5ABB6" stroke="none" d="M 25 0.5 L 244.16673883541944 0.5 L 244.16673883541944 -0.5 L 25 -0.5 Z M 317.16673883541944 0.5 L 536.3334776708389 0.5 L 536.3334776708389 3.5 L 543.3334776708389 0 L 536.3334776708389 -3.5 L 536.3334776708389 -0.5 L 317.16673883541944 -0.5 Z"/><text text-anchor="middle" pointer-events="none" font-size="8px" fill="#000000" x="280.66673883541944" y="3" font-family="sans-serif">HAS_HARDWARE</text></g><g class="relationship" transform="translate(-22.462207374113405 761.439445114852) rotate(347.8234190942155)"><path class="outline" fill="#A5ABB6" stroke="none" d="M 25 0.5 L 74.07923833489583 0.5 L 74.07923833489583 -0.5 L 25 -0.5 Z M 147.07923833489582 0.5 L 196.15847666979167 0.5 L 196.15847666979167 3.5 L 203.15847666979167 0 L 196.15847666979167 -3.5 L 196.15847666979167 -0.5 L 147.07923833489582 -0.5 Z"/><text text-anchor="middle" pointer-events="none" font-size="8px" fill="#000000" x="110.57923833489583" y="3" font-family="sans-serif">HAS_HARDWARE</text></g><g class="relationship" transform="translate(-22.462207374113405 761.439445114852) rotate(364.0920650323312)"><path class="outline" fill="#A5ABB6" stroke="none" d="M 25 0.5 L 76.55823597150152 0.5 L 76.55823597150152 -0.5 L 25 -0.5 Z M 149.55823597150152 0.5 L 201.11647194300303 0.5 L 201.11647194300303 3.5 L 208.11647194300303 0 L 201.11647194300303 -3.5 L 201.11647194300303 -0.5 L 149.55823597150152 -0.5 Z"/><text text-anchor="middle" pointer-events="none" font-size="8px" fill="#000000" x="113.05823597150152" y="3" font-family="sans-serif">HAS_HARDWARE</text></g><g class="relationship" transform="translate(-239.76647032472673 236.29013382812786) rotate(307.45259836944336)"><path class="outline" fill="#A5ABB6" stroke="none" d="M 25 0.5 L 114.23932219905024 0.5 L 114.23932219905024 -0.5 L 25 -0.5 Z M 187.23932219905024 0.5 L 276.47864439810047 0.5 L 276.47864439810047 3.5 L 283.47864439810047 0 L 276.47864439810047 -3.5 L 276.47864439810047 -0.5 L 187.23932219905024 -0.5 Z"/><text text-anchor="middle" pointer-events="none" font-size="8px" fill="#000000" x="150.73932219905024" y="3" font-family="sans-serif">HAS_HARDWARE</text></g><g class="relationship" transform="translate(-431.39300043112473 233.7877619354473) rotate(306.74693219675896)"><path class="outline" fill="#A5ABB6" stroke="none" d="M 25 0.5 L 117.90455455915284 0.5 L 117.90455455915284 -0.5 L 25 -0.5 Z M 190.90455455915284 0.5 L 283.8091091183057 0.5 L 283.8091091183057 3.5 L 290.8091091183057 0 L 283.8091091183057 -3.5 L 283.8091091183057 -0.5 L 190.90455455915284 -0.5 Z"/><text text-anchor="middle" pointer-events="none" font-size="8px" fill="#000000" x="154.40455455915284" y="3" font-family="sans-serif">HAS_HARDWARE</text></g><g class="relationship" transform="translate(-431.39300043112473 233.7877619354473) rotate(420.36502825516925)"><path class="outline" fill="#A5ABB6" stroke="none" d="M 25 0.5 L 156.7283294601962 0.5 L 156.7283294601962 -0.5 L 25 -0.5 Z M 229.7283294601962 0.5 L 361.4566589203924 0.5 L 361.4566589203924 3.5 L 368.4566589203924 0 L 361.4566589203924 -3.5 L 361.4566589203924 -0.5 L 229.7283294601962 -0.5 Z"/><text text-anchor="middle" pointer-events="none" font-size="8px" fill="#000000" x="193.2283294601962" y="3" font-family="sans-serif">HAS_HARDWARE</text></g></g><g class="layer nodes"><g class="node" transform="translate(-576.7607240298024,233.42807750208885)"><circle class="outline" cx="0" cy="0" r="25" fill="#57C7E3" stroke="#23b3d7" stroke-width="2px"/><text text-anchor="middle" pointer-events="none" font-family="sans-serif" dy="1.5625" font-size="25" fill="#FFFFFF"/><text text-anchor="middle" pointer-events="none" y="5" font-size="10px" fill="#FFFFFF" font-family="sans-serif"> pythag…</text></g><g class="node" transform="translate(-431.39300043112473,233.7877619354473)"><circle class="outline" cx="0" cy="0" r="25" fill="#FFC454" stroke="#d7a013" stroke-width="2px"/><text text-anchor="middle" pointer-events="none" font-family="sans-serif" dy="1.5625" font-size="25" fill="#604A0E"/><text text-anchor="middle" pointer-events="none" y="5" font-size="10px" fill="#604A0E" font-family="sans-serif"> pythag…</text></g><g class="node" transform="translate(-239.76647032472673,236.29013382812786)"><circle class="outline" cx="0" cy="0" r="25" fill="#FFC454" stroke="#d7a013" stroke-width="2px"/><text text-anchor="middle" pointer-events="none" font-family="sans-serif" dy="1.5625" font-size="25" fill="#604A0E"/><text text-anchor="middle" pointer-events="none" y="5" font-size="10px" fill="#604A0E" font-family="sans-serif"> core-0-…</text></g><g class="node" transform="translate(-51.47141312835288,55.962110406596864)"><circle class="outline" cx="0" cy="0" r="25" fill="#FFC454" stroke="#d7a013" stroke-width="2px"/><text text-anchor="middle" pointer-events="none" font-family="sans-serif" dy="1.5625" font-size="25" fill="#604A0E"/><text text-anchor="middle" pointer-events="none" y="5" font-size="10px" fill="#604A0E" font-family="sans-serif"> cpu-3f-…</text></g><g class="node" transform="translate(-53.749051756670724,121.77757439434612)"><circle class="outline" cx="0" cy="0" r="25" fill="#FFC454" stroke="#d7a013" stroke-width="2px"/><text text-anchor="middle" pointer-events="none" font-family="sans-serif" dy="1.5625" font-size="25" fill="#604A0E"/><text text-anchor="middle" pointer-events="none" y="5" font-size="10px" fill="#604A0E" font-family="sans-serif"> cache:…</text></g><g class="node" transform="translate(-47.51947744893329,375.5670168161492)"><circle class="outline" cx="0" cy="0" r="25" fill="#FFC454" stroke="#d7a013" stroke-width="2px"/><text text-anchor="middle" pointer-events="none" font-family="sans-serif" dy="1.5625" font-size="25" fill="#604A0E"/><text text-anchor="middle" pointer-events="none" y="5" font-size="10px" fill="#604A0E" font-family="sans-serif"> cache:…</text></g><g class="node" transform="translate(-47.52920014812064,233.62117418099652)"><circle class="outline" cx="0" cy="0" r="25" fill="#FFC454" stroke="#d7a013" stroke-width="2px"/><text text-anchor="middle" pointer-events="none" font-family="sans-serif" dy="1.5625" font-size="25" fill="#604A0E"/><text text-anchor="middle" pointer-events="none" y="5" font-size="10px" fill="#604A0E" font-family="sans-serif"> pci-100…</text></g><g class="node" transform="translate(200.79704610835012,-0.32643190990879134)"><circle class="outline" cx="0" cy="0" r="25" fill="#FFC454" stroke="#d7a013" stroke-width="2px"/><text text-anchor="middle" pointer-events="none" font-family="sans-serif" dy="1.5625" font-size="25" fill="#604A0E"/><text text-anchor="middle" pointer-events="none" y="5" font-size="10px" fill="#604A0E" font-family="sans-serif"> generic…</text></g><g class="node" transform="translate(200.3657473626706,411.1823675739267)"><circle class="outline" cx="0" cy="0" r="25" fill="#FFC454" stroke="#d7a013" stroke-width="2px"/><text text-anchor="middle" pointer-events="none" font-family="sans-serif" dy="1.5625" font-size="25" fill="#604A0E"/><text text-anchor="middle" pointer-events="none" y="5" font-size="10px" fill="#604A0E" font-family="sans-serif"> pci:3-1…</text></g><g class="node" transform="translate(399.34317909227855,411.5615754978287)"><circle class="outline" cx="0" cy="0" r="25" fill="#FFC454" stroke="#d7a013" stroke-width="2px"/><text text-anchor="middle" pointer-events="none" font-family="sans-serif" dy="1.5625" font-size="25" fill="#604A0E"/><text text-anchor="middle" pointer-events="none" y="5" font-size="10px" fill="#604A0E" font-family="sans-serif"> storage…</text></g><g class="node" transform="translate(203.79684063747408,347.0859383568499)"><circle class="outline" cx="0" cy="0" r="25" fill="#FFC454" stroke="#d7a013" stroke-width="2px"/><text text-anchor="middle" pointer-events="none" font-family="sans-serif" dy="1.5625" font-size="25" fill="#604A0E"/><text text-anchor="middle" pointer-events="none" y="5" font-size="10px" fill="#604A0E" font-family="sans-serif"> pci:1-1…</text></g><g class="node" transform="translate(405.1954627361719,346.89892702418865)"><circle class="outline" cx="0" cy="0" r="25" fill="#FFC454" stroke="#d7a013" stroke-width="2px"/><text text-anchor="middle" pointer-events="none" font-family="sans-serif" dy="1.5625" font-size="25" fill="#604A0E"/><text text-anchor="middle" pointer-events="none" y="5" font-size="10px" fill="#604A0E" font-family="sans-serif"> networ…</text></g><g class="node" transform="translate(197.62416921678653,-150.51666644432075)"><circle class="outline" cx="0" cy="0" r="25" fill="#FFC454" stroke="#d7a013" stroke-width="2px"/><text text-anchor="middle" pointer-events="none" font-family="sans-serif" dy="1.5625" font-size="25" fill="#604A0E"/><text text-anchor="middle" pointer-events="none" y="5" font-size="10px" fill="#604A0E" font-family="sans-serif"> generic…</text></g><g class="node" transform="translate(195.41279110474477,654.9218980578287)"><circle class="outline" cx="0" cy="0" r="25" fill="#FFC454" stroke="#d7a013" stroke-width="2px"/><text text-anchor="middle" pointer-events="none" font-family="sans-serif" dy="1.5625" font-size="25" fill="#604A0E"/><text text-anchor="middle" pointer-events="none" y="5" font-size="10px" fill="#604A0E" font-family="sans-serif"> generic…</text></g><g class="node" transform="translate(195.00004676389312,-70.52976794182052)"><circle class="outline" cx="0" cy="0" r="25" fill="#FFC454" stroke="#d7a013" stroke-width="2px"/><text text-anchor="middle" pointer-events="none" font-family="sans-serif" dy="1.5625" font-size="25" fill="#604A0E"/><text text-anchor="middle" pointer-events="none" y="5" font-size="10px" fill="#604A0E" font-family="sans-serif"> isa-1f-P…</text></g><g class="node" transform="translate(196.70930548502253,610.4479288932769)"><circle class="outline" cx="0" cy="0" r="25" fill="#FFC454" stroke="#d7a013" stroke-width="2px"/><text text-anchor="middle" pointer-events="none" font-family="sans-serif" dy="1.5625" font-size="25" fill="#604A0E"/><text text-anchor="middle" pointer-events="none" y="5" font-size="10px" fill="#604A0E" font-family="sans-serif"> commu…</text></g><g class="node" transform="translate(204.2344571214035,170.79093793695384)"><circle class="outline" cx="0" cy="0" r="25" fill="#FFC454" stroke="#d7a013" stroke-width="2px"/><text text-anchor="middle" pointer-events="none" font-family="sans-serif" dy="1.5625" font-size="25" fill="#604A0E"/><text text-anchor="middle" pointer-events="none" y="5" font-size="10px" fill="#604A0E" font-family="sans-serif"> multim…</text></g><g class="node" transform="translate(204.99154380305922,118.60705616026405)"><circle class="outline" cx="0" cy="0" r="25" fill="#FFC454" stroke="#d7a013" stroke-width="2px"/><text text-anchor="middle" pointer-events="none" font-family="sans-serif" dy="1.5625" font-size="25" fill="#604A0E"/><text text-anchor="middle" pointer-events="none" y="5" font-size="10px" fill="#604A0E" font-family="sans-serif"> generic…</text></g><g class="node" transform="translate(195.28169788810533,550.9931336714449)"><circle class="outline" cx="0" cy="0" r="25" fill="#FFC454" stroke="#d7a013" stroke-width="2px"/><text text-anchor="middle" pointer-events="none" font-family="sans-serif" dy="1.5625" font-size="25" fill="#604A0E"/><text text-anchor="middle" pointer-events="none" y="5" font-size="10px" fill="#604A0E" font-family="sans-serif"> display…</text></g><g class="node" transform="translate(195.97821734904866,483.8713822272225)"><circle class="outline" cx="0" cy="0" r="25" fill="#FFC454" stroke="#d7a013" stroke-width="2px"/><text text-anchor="middle" pointer-events="none" font-family="sans-serif" dy="1.5625" font-size="25" fill="#604A0E"/><text text-anchor="middle" pointer-events="none" y="5" font-size="10px" fill="#604A0E" font-family="sans-serif"> pci:2-1…</text></g><g class="node" transform="translate(386.8140862986402,483.498014284983)"><circle class="outline" cx="0" cy="0" r="25" fill="#FFC454" stroke="#d7a013" stroke-width="2px"/><text text-anchor="middle" pointer-events="none" font-family="sans-serif" dy="1.5625" font-size="25" fill="#604A0E"/><text text-anchor="middle" pointer-events="none" y="5" font-size="10px" fill="#604A0E" font-family="sans-serif"> generic…</text></g><g class="node" transform="translate(206.336107435023,228.2366478247912)"><circle class="outline" cx="0" cy="0" r="25" fill="#FFC454" stroke="#d7a013" stroke-width="2px"/><text text-anchor="middle" pointer-events="none" font-family="sans-serif" dy="1.5625" font-size="25" fill="#604A0E"/><text text-anchor="middle" pointer-events="none" y="5" font-size="10px" fill="#604A0E" font-family="sans-serif"> usb-14-…</text></g><g class="node" transform="translate(404.198992314263,237.4823296550141)"><circle class="outline" cx="0" cy="0" r="25" fill="#FFC454" stroke="#d7a013" stroke-width="2px"/><text text-anchor="middle" pointer-events="none" font-family="sans-serif" dy="1.5625" font-size="25" fill="#604A0E"/><text text-anchor="middle" pointer-events="none" y="5" font-size="10px" fill="#604A0E" font-family="sans-serif"> usbhost…</text></g><g class="node" transform="translate(577.529520030555,306.1884869895558)"><circle class="outline" cx="0" cy="0" r="25" fill="#FFC454" stroke="#d7a013" stroke-width="2px"/><text text-anchor="middle" pointer-events="none" font-family="sans-serif" dy="1.5625" font-size="25" fill="#604A0E"/><text text-anchor="middle" pointer-events="none" y="5" font-size="10px" fill="#604A0E" font-family="sans-serif"> usb:0-3…</text></g><g class="node" transform="translate(584.5823035681192,222.1550464564052)"><circle class="outline" cx="0" cy="0" r="25" fill="#FFC454" stroke="#d7a013" stroke-width="2px"/><text text-anchor="middle" pointer-events="none" font-family="sans-serif" dy="1.5625" font-size="25" fill="#604A0E"/><text text-anchor="middle" pointer-events="none" y="5" font-size="10px" fill="#604A0E" font-family="sans-serif"> usb:2-5…</text></g><g class="node" transform="translate(582.6937124211175,140.00407001104196)"><circle class="outline" cx="0" cy="0" r="25" fill="#FFC454" stroke="#d7a013" stroke-width="2px"/><text text-anchor="middle" pointer-events="none" font-family="sans-serif" dy="1.5625" font-size="25" fill="#604A0E"/><text text-anchor="middle" pointer-events="none" y="5" font-size="10px" fill="#604A0E" font-family="sans-serif"> usb:1-4…</text></g><g class="node" transform="translate(404.0397819032312,165.4233581807079)"><circle class="outline" cx="0" cy="0" r="25" fill="#FFC454" stroke="#d7a013" stroke-width="2px"/><text text-anchor="middle" pointer-events="none" font-family="sans-serif" dy="1.5625" font-size="25" fill="#604A0E"/><text text-anchor="middle" pointer-events="none" y="5" font-size="10px" fill="#604A0E" font-family="sans-serif"> usbhost…</text></g><g class="node" transform="translate(193.17984775140303,-231.55530535592374)"><circle class="outline" cx="0" cy="0" r="25" fill="#FFC454" stroke="#d7a013" stroke-width="2px"/><text text-anchor="middle" pointer-events="none" font-family="sans-serif" dy="1.5625" font-size="25" fill="#604A0E"/><text text-anchor="middle" pointer-events="none" y="5" font-size="10px" fill="#604A0E" font-family="sans-serif"> serial-1…</text></g><g class="node" transform="translate(202.2335712129069,54.235410916291926)"><circle class="outline" cx="0" cy="0" r="25" fill="#FFC454" stroke="#d7a013" stroke-width="2px"/><text text-anchor="middle" pointer-events="none" font-family="sans-serif" dy="1.5625" font-size="25" fill="#604A0E"/><text text-anchor="middle" pointer-events="none" y="5" font-size="10px" fill="#604A0E" font-family="sans-serif"> pci:0-1…</text></g><g class="node" transform="translate(413.55422091554436,67.91831315723182)"><circle class="outline" cx="0" cy="0" r="25" fill="#FFC454" stroke="#d7a013" stroke-width="2px"/><text text-anchor="middle" pointer-events="none" font-family="sans-serif" dy="1.5625" font-size="25" fill="#604A0E"/><text text-anchor="middle" pointer-events="none" y="5" font-size="10px" fill="#604A0E" font-family="sans-serif"> pci-0-P…</text></g><g class="node" transform="translate(585.8233429383869,65.45030175237842)"><circle class="outline" cx="0" cy="0" r="25" fill="#FFC454" stroke="#d7a013" stroke-width="2px"/><text text-anchor="middle" pointer-events="none" font-family="sans-serif" dy="1.5625" font-size="25" fill="#604A0E"/><text text-anchor="middle" pointer-events="none" y="5" font-size="10px" fill="#604A0E" font-family="sans-serif"> pci:0-0-…</text></g><g class="node" transform="translate(580.5757803404208,-9.443592784939792)"><circle class="outline" cx="0" cy="0" r="25" fill="#FFC454" stroke="#d7a013" stroke-width="2px"/><text text-anchor="middle" pointer-events="none" font-family="sans-serif" dy="1.5625" font-size="25" fill="#604A0E"/><text text-anchor="middle" pointer-events="none" y="5" font-size="10px" fill="#604A0E" font-family="sans-serif"> pci:1-1-…</text></g><g class="node" transform="translate(582.4445585124512,-81.6252207141502)"><circle class="outline" cx="0" cy="0" r="25" fill="#FFC454" stroke="#d7a013" stroke-width="2px"/><text text-anchor="middle" pointer-events="none" font-family="sans-serif" dy="1.5625" font-size="25" fill="#604A0E"/><text text-anchor="middle" pointer-events="none" y="5" font-size="10px" fill="#604A0E" font-family="sans-serif"> pci:2-2-…</text></g><g class="node" transform="translate(748.6121169228927,-84.39731405430175)"><circle class="outline" cx="0" cy="0" r="25" fill="#FFC454" stroke="#d7a013" stroke-width="2px"/><text text-anchor="middle" pointer-events="none" font-family="sans-serif" dy="1.5625" font-size="25" fill="#604A0E"/><text text-anchor="middle" pointer-events="none" y="5" font-size="10px" fill="#604A0E" font-family="sans-serif"> usb-0-P…</text></g><g class="node" transform="translate(875.0113955704286,-11.34146159098421)"><circle class="outline" cx="0" cy="0" r="25" fill="#FFC454" stroke="#d7a013" stroke-width="2px"/><text text-anchor="middle" pointer-events="none" font-family="sans-serif" dy="1.5625" font-size="25" fill="#604A0E"/><text text-anchor="middle" pointer-events="none" y="5" font-size="10px" fill="#604A0E" font-family="sans-serif"> usbhost…</text></g><g class="node" transform="translate(1053.5845867821552,-16.990637738826706)"><circle class="outline" cx="0" cy="0" r="25" fill="#FFC454" stroke="#d7a013" stroke-width="2px"/><text text-anchor="middle" pointer-events="none" font-family="sans-serif" dy="1.5625" font-size="25" fill="#604A0E"/><text text-anchor="middle" pointer-events="none" y="5" font-size="10px" fill="#604A0E" font-family="sans-serif"> usb-1-U…</text></g><g class="node" transform="translate(1227.376207914355,-109.2690930296819)"><circle class="outline" cx="0" cy="0" r="25" fill="#FFC454" stroke="#d7a013" stroke-width="2px"/><text text-anchor="middle" pointer-events="none" font-family="sans-serif" dy="1.5625" font-size="25" fill="#604A0E"/><text text-anchor="middle" pointer-events="none" y="5" font-size="10px" fill="#604A0E" font-family="sans-serif"> usb:1-7…</text></g><g class="node" transform="translate(1218.3804122755553,28.925570235114805)"><circle class="outline" cx="0" cy="0" r="25" fill="#FFC454" stroke="#d7a013" stroke-width="2px"/><text text-anchor="middle" pointer-events="none" font-family="sans-serif" dy="1.5625" font-size="25" fill="#604A0E"/><text text-anchor="middle" pointer-events="none" y="5" font-size="10px" fill="#604A0E" font-family="sans-serif"> usb:0-5…</text></g><g class="node" transform="translate(871.1545771945,-198.59049038932542)"><circle class="outline" cx="0" cy="0" r="25" fill="#FFC454" stroke="#d7a013" stroke-width="2px"/><text text-anchor="middle" pointer-events="none" font-family="sans-serif" dy="1.5625" font-size="25" fill="#604A0E"/><text text-anchor="middle" pointer-events="none" y="5" font-size="10px" fill="#604A0E" font-family="sans-serif"> usbhost…</text></g><g class="node" transform="translate(1054.4563543714448,-197.2884417048112)"><circle class="outline" cx="0" cy="0" r="25" fill="#FFC454" stroke="#d7a013" stroke-width="2px"/><text text-anchor="middle" pointer-events="none" font-family="sans-serif" dy="1.5625" font-size="25" fill="#604A0E"/><text text-anchor="middle" pointer-events="none" y="5" font-size="10px" fill="#604A0E" font-family="sans-serif"> usb-1-U…</text></g><g class="node" transform="translate(1229.2518431790963,-196.1104199900466)"><circle class="outline" cx="0" cy="0" r="25" fill="#FFC454" stroke="#d7a013" stroke-width="2px"/><text text-anchor="middle" pointer-events="none" font-family="sans-serif" dy="1.5625" font-size="25" fill="#604A0E"/><text text-anchor="middle" pointer-events="none" y="5" font-size="10px" fill="#604A0E" font-family="sans-serif"> usb-2-U…</text></g><g class="node" transform="translate(200.54372209420922,286.15071371053926)"><circle class="outline" cx="0" cy="0" r="25" fill="#FFC454" stroke="#d7a013" stroke-width="2px"/><text text-anchor="middle" pointer-events="none" font-family="sans-serif" dy="1.5625" font-size="25" fill="#604A0E"/><text text-anchor="middle" pointer-events="none" y="5" font-size="10px" fill="#604A0E" font-family="sans-serif"> memor…</text></g><g class="node" transform="translate(-54.496790922296206,-68.40465179290536)"><circle class="outline" cx="0" cy="0" r="25" fill="#FFC454" stroke="#d7a013" stroke-width="2px"/><text text-anchor="middle" pointer-events="none" font-family="sans-serif" dy="1.5625" font-size="25" fill="#604A0E"/><text text-anchor="middle" pointer-events="none" y="5" font-size="10px" fill="#604A0E" font-family="sans-serif"> cache:…</text></g><g class="node" transform="translate(-22.462207374113405,761.439445114852)"><circle class="outline" cx="0" cy="0" r="25" fill="#FFC454" stroke="#d7a013" stroke-width="2px"/><text text-anchor="middle" pointer-events="none" font-family="sans-serif" dy="1.5625" font-size="25" fill="#604A0E"/><text text-anchor="middle" pointer-events="none" y="5" font-size="10px" fill="#604A0E" font-family="sans-serif"> memor…</text></g><g class="node" transform="translate(200.5632031457294,713.3150569240869)"><circle class="outline" cx="0" cy="0" r="25" fill="#FFC454" stroke="#d7a013" stroke-width="2px"/><text text-anchor="middle" pointer-events="none" font-family="sans-serif" dy="1.5625" font-size="25" fill="#604A0E"/><text text-anchor="middle" pointer-events="none" y="5" font-size="10px" fill="#604A0E" font-family="sans-serif"> bank:1-…</text></g><g class="node" transform="translate(210.05997495178156,778.0744749481939)"><circle class="outline" cx="0" cy="0" r="25" fill="#FFC454" stroke="#d7a013" stroke-width="2px"/><text text-anchor="middle" pointer-events="none" font-family="sans-serif" dy="1.5625" font-size="25" fill="#604A0E"/><text text-anchor="middle" pointer-events="none" y="5" font-size="10px" fill="#604A0E" font-family="sans-serif"> bank:0-…</text></g><g class="node" transform="translate(-52.17910498932474,-8.597706654432955)"><circle class="outline" cx="0" cy="0" r="25" fill="#FFC454" stroke="#d7a013" stroke-width="2px"/><text text-anchor="middle" pointer-events="none" font-family="sans-serif" dy="1.5625" font-size="25" fill="#604A0E"/><text text-anchor="middle" pointer-events="none" y="5" font-size="10px" fill="#604A0E" font-family="sans-serif"> firmwar…</text></g><g class="node" transform="translate(-242.45019039472623,-19.265607806287846)"><circle class="outline" cx="0" cy="0" r="25" fill="#FFC454" stroke="#d7a013" stroke-width="2px"/><text text-anchor="middle" pointer-events="none" font-family="sans-serif" dy="1.5625" font-size="25" fill="#604A0E"/><text text-anchor="middle" pointer-events="none" y="5" font-size="10px" fill="#604A0E" font-family="sans-serif"> battery…</text></g><g class="node" transform="translate(-236.83950659524845,575.7776455359007)"><circle class="outline" cx="0" cy="0" r="25" fill="#FFC454" stroke="#d7a013" stroke-width="2px"/><text text-anchor="middle" pointer-events="none" font-family="sans-serif" dy="1.5625" font-size="25" fill="#604A0E"/><text text-anchor="middle" pointer-events="none" y="5" font-size="10px" fill="#604A0E" font-family="sans-serif"> networ…</text></g></g></svg>