<svg xmlns="http://www.w3.org/2000/svg" width="284.14251708984375" height="284.03851318359375" viewBox="-48.3993034362793 -47.589054107666016 284.14251708984375 284.03851318359375"><title>Neo4j Graph Visualization</title><desc>Created using Neo4j (http://www.neo4j.com/)</desc><g class="layer relationships"><g class="relationship" transform="translate(92.1091976140697 92.2594273586675) rotate(424.8322824589425)"><path class="outline" fill="#A5ABB6" stroke="none" d="M 25 0.5 L 25.19236444906538 0.5 L 25.19236444906538 -0.5 L 25 -0.5 Z M 88.19236444906538 0.5 L 88.38472889813076 0.5 L 88.38472889813076 3.5 L 95.38472889813076 0 L 88.38472889813076 -3.5 L 88.38472889813076 -0.5 L 88.19236444906538 -0.5 Z"/><text text-anchor="middle" pointer-events="none" font-size="8px" fill="#000000" x="56.69236444906538" y="3" font-family="sans-serif">HAS_INTERF…</text></g><g class="relationship" transform="translate(92.1091976140697 92.2594273586675) rotate(384.2512170187041)"><path class="outline" fill="#A5ABB6" stroke="none" d="M 25 0.5 L 25.19864276491547 0.5 L 25.19864276491547 -0.5 L 25 -0.5 Z M 88.19864276491546 0.5 L 88.39728552983094 0.5 L 88.39728552983094 3.5 L 95.39728552983094 0 L 88.39728552983094 -3.5 L 88.39728552983094 -0.5 L 88.19864276491546 -0.5 Z"/><text text-anchor="middle" pointer-events="none" font-size="8px" fill="#000000" x="56.69864276491547" y="3" font-family="sans-serif">HAS_INTERF…</text></g><g class="relationship" transform="translate(92.1091976140697 92.2594273586675) rotate(341.8483467366808)"><path class="outline" fill="#A5ABB6" stroke="none" d="M 25 0.5 L 25.318758061963365 0.5 L 25.318758061963365 -0.5 L 25 -0.5 Z M 88.31875806196336 0.5 L 88.63751612392673 0.5 L 88.63751612392673 3.5 L 95.63751612392673 0 L 88.63751612392673 -3.5 L 88.63751612392673 -0.5 L 88.31875806196336 -0.5 Z"/><text text-anchor="middle" pointer-events="none" font-size="8px" fill="#000000" x="56.818758061963365" y="3" font-family="sans-serif">HAS_INTERF…</text></g><g class="relationship" transform="translate(92.1091976140697 92.2594273586675) rotate(295.37542490355764)"><path class="outline" fill="#A5ABB6" stroke="none" d="M 25 0.5 L 25.103669024844393 0.5 L 25.103669024844393 -0.5 L 25 -0.5 Z M 88.1036690248444 0.5 L 88.20733804968879 0.5 L 88.20733804968879 3.5 L 95.20733804968879 0 L 88.20733804968879 -3.5 L 88.20733804968879 -0.5 L 88.1036690248444 -0.5 Z"/><text text-anchor="middle" pointer-events="none" font-size="8px" fill="#000000" x="56.60366902484439" y="3" font-family="sans-serif">HAS_INTERF…</text></g><g class="relationship" transform="translate(92.1091976140697 92.2594273586675) rotate(248.02002172668716)"><path class="outline" fill="#A5ABB6" stroke="none" d="M 25 0.5 L 27.268534270090996 0.5 L 27.268534270090996 -0.5 L 25 -0.5 Z M 85.268534270091 0.5 L 87.53706854018199 0.5 L 87.53706854018199 3.5 L 94.53706854018199 0 L 87.53706854018199 -3.5 L 87.53706854018199 -0.5 L 85.268534270091 -0.5 Z"/><text text-anchor="middle" pointer-events="none" font-size="8px" fill="#000000" x="56.268534270090996" y="3" transform="rotate(180 56.268534270090996 0)" font-family="sans-serif">HAS_INTER…</text></g><g class="relationship" transform="translate(92.1091976140697 92.2594273586675) rotate(201.10398529325062)"><path class="outline" fill="#A5ABB6" stroke="none" d="M 25 0.5 L 27.2626195952922 0.5 L 27.2626195952922 -0.5 L 25 -0.5 Z M 85.2626195952922 0.5 L 87.5252391905844 0.5 L 87.5252391905844 3.5 L 94.5252391905844 0 L 87.5252391905844 -3.5 L 87.5252391905844 -0.5 L 85.2626195952922 -0.5 Z"/><text text-anchor="middle" pointer-events="none" font-size="8px" fill="#000000" x="56.2626195952922" y="3" transform="rotate(180 56.2626195952922 0)" font-family="sans-serif">HAS_INTER…</text></g><g class="relationship" transform="translate(92.1091976140697 92.2594273586675) rotate(513.7339916563742)"><path class="outline" fill="#A5ABB6" stroke="none" d="M 25 0.5 L 25.089826503286723 0.5 L 25.089826503286723 -0.5 L 25 -0.5 Z M 88.08982650328673 0.5 L 88.17965300657345 0.5 L 88.17965300657345 3.5 L 95.17965300657345 0 L 88.17965300657345 -3.5 L 88.17965300657345 -0.5 L 88.08982650328673 -0.5 Z"/><text text-anchor="middle" pointer-events="none" font-size="8px" fill="#000000" x="56.58982650328672" y="3" transform="rotate(180 56.58982650328672 0)" font-family="sans-serif">HAS_INTERF…</text></g><g class="relationship" transform="translate(92.1091976140697 92.2594273586675) rotate(467.2431237418217)"><path class="outline" fill="#A5ABB6" stroke="none" d="M 25 0.5 L 25.305405299148035 0.5 L 25.305405299148035 -0.5 L 25 -0.5 Z M 88.30540529914803 0.5 L 88.61081059829607 0.5 L 88.61081059829607 3.5 L 95.61081059829607 0 L 88.61081059829607 -3.5 L 88.61081059829607 -0.5 L 88.30540529914803 -0.5 Z"/><text text-anchor="middle" pointer-events="none" font-size="8px" fill="#000000" x="56.805405299148035" y="3" transform="rotate(180 56.805405299148035 0)" font-family="sans-serif">HAS_INTERF…</text></g></g><g class="layer nodes"><g class="node" transform="translate(92.1091976140697,92.2594273586675)"><circle class="outline" cx="0" cy="0" r="25" fill="#57C7E3" stroke="#23b3d7" stroke-width="2px"/><text text-anchor="middle" pointer-events="none" font-family="sans-serif" dy="1.5625" font-size="25" fill="#FFFFFF"/><text text-anchor="middle" pointer-events="none" y="5" font-size="10px" fill="#FFFFFF" font-family="sans-serif"> pythag…</text></g><g class="node" transform="translate(143.30514055831486,201.21564965884653)"><circle class="outline" cx="0" cy="0" r="25" fill="#569480" stroke="#447666" stroke-width="2px"/><text text-anchor="middle" pointer-events="none" font-family="sans-serif" dy="1.5625" font-size="25" fill="#FFFFFF"/><text text-anchor="middle" pointer-events="none" y="5" font-size="10px" fill="#FFFFFF" font-family="sans-serif"> br-f8fef…</text></g><g class="node" transform="translate(201.8818223304893,141.71119401891676)"><circle class="outline" cx="0" cy="0" r="25" fill="#569480" stroke="#447666" stroke-width="2px"/><text text-anchor="middle" pointer-events="none" font-family="sans-serif" dy="1.5625" font-size="25" fill="#FFFFFF"/><text text-anchor="middle" pointer-events="none" y="5" font-size="10px" fill="#FFFFFF" font-family="sans-serif"> br-8a43…</text></g><g class="node" transform="translate(206.74321966177158,54.67683450349473)"><circle class="outline" cx="0" cy="0" r="25" fill="#569480" stroke="#447666" stroke-width="2px"/><text text-anchor="middle" pointer-events="none" font-family="sans-serif" dy="1.5625" font-size="25" fill="#FFFFFF"/><text text-anchor="middle" pointer-events="none" y="5" font-size="10px" fill="#FFFFFF" font-family="sans-serif"> br-0ba6…</text></g><g class="node" transform="translate(143.6237684879622,-16.350208994056132)"><circle class="outline" cx="0" cy="0" r="25" fill="#569480" stroke="#447666" stroke-width="2px"/><text text-anchor="middle" pointer-events="none" font-family="sans-serif" dy="1.5625" font-size="25" fill="#FFFFFF"/><text text-anchor="middle" pointer-events="none" y="5" font-size="10px" fill="#FFFFFF" font-family="sans-serif"> br-667d…</text></g><g class="node" transform="translate(47.36855630216237,-18.589053777428465)"><circle class="outline" cx="0" cy="0" r="25" fill="#569480" stroke="#447666" stroke-width="2px"/><text text-anchor="middle" pointer-events="none" font-family="sans-serif" dy="1.5625" font-size="25" fill="#FFFFFF"/><text text-anchor="middle" pointer-events="none" y="5" font-size="10px" fill="#FFFFFF" font-family="sans-serif"> wlp58s0</text></g><g class="node" transform="translate(-19.399303594285396,49.22296651634587)"><circle class="outline" cx="0" cy="0" r="25" fill="#569480" stroke="#447666" stroke-width="2px"/><text text-anchor="middle" pointer-events="none" font-family="sans-serif" dy="1.5625" font-size="25" fill="#FFFFFF"/><text text-anchor="middle" pointer-events="none" y="5" font-size="10px" fill="#FFFFFF" font-family="sans-serif"> lo</text></g><g class="node" transform="translate(-15.661801881747992,145.4436417878838)"><circle class="outline" cx="0" cy="0" r="25" fill="#569480" stroke="#447666" stroke-width="2px"/><text text-anchor="middle" pointer-events="none" font-family="sans-serif" dy="1.5625" font-size="25" fill="#FFFFFF"/><text text-anchor="middle" pointer-events="none" y="5" font-size="10px" fill="#FFFFFF" font-family="sans-serif"> br-7268…</text></g><g class="node" transform="translate(56.35690196247044,207.4494485793387)"><circle class="outline" cx="0" cy="0" r="25" fill="#569480" stroke="#447666" stroke-width="2px"/><text text-anchor="middle" pointer-events="none" font-family="sans-serif" dy="1.5625" font-size="25" fill="#FFFFFF"/><text text-anchor="middle" pointer-events="none" y="5" font-size="10px" fill="#FFFFFF" font-family="sans-serif"> docker0</text></g></g></svg>