<svg xmlns="http://www.w3.org/2000/svg" width="1835.864013671875" height="639.7843017578125" viewBox="-697.6483154296875 -240.7467803955078 1835.864013671875 639.7843017578125"><title>Neo4j Graph Visualization</title><desc>Created using Neo4j (http://www.neo4j.com/)</desc><g class="layer relationships"><g class="relationship" transform="translate(174.44905792529846 -211.74677693051785) rotate(396.658598583536)"><path class="outline" fill="#A5ABB6" stroke="none" d="M 25 0.5 L 70.70406982948172 0.5 L 70.70406982948172 -0.5 L 25 -0.5 Z M 140.70406982948174 0.5 L 186.40813965896345 0.5 L 186.40813965896345 3.5 L 193.40813965896345 0 L 186.40813965896345 -3.5 L 186.40813965896345 -0.5 L 140.70406982948174 -0.5 Z"/><text text-anchor="middle" pointer-events="none" font-size="8px" fill="#000000" x="105.70406982948172" y="3" font-family="sans-serif">HAS_INTERFACE</text></g><g class="relationship" transform="translate(349.6576561424491 -81.34715047372787) rotate(403.175197400993)"><path class="outline" fill="#A5ABB6" stroke="none" d="M 25 0.5 L 122.62814080047727 0.5 L 122.62814080047727 -0.5 L 25 -0.5 Z M 174.62814080047727 0.5 L 272.25628160095454 0.5 L 272.25628160095454 3.5 L 279.25628160095454 0 L 272.25628160095454 -3.5 L 272.25628160095454 -0.5 L 174.62814080047727 -0.5 Z"/><text text-anchor="middle" pointer-events="none" font-size="8px" fill="#000000" x="148.62814080047727" y="3" font-family="sans-serif">USES_PORT</text></g><g class="relationship" transform="translate(701.8997663234932 365.3111289313496) rotate(241.3376145290042)"><path class="outline" fill="#A5ABB6" stroke="none" d="M 25 0.5 L 107.89007833770688 0.5 L 107.89007833770688 -0.5 L 25 -0.5 Z M 156.89007833770688 0.5 L 239.78015667541376 0.5 L 239.78015667541376 3.5 L 246.78015667541376 0 L 239.78015667541376 -3.5 L 239.78015667541376 -0.5 L 156.89007833770688 -0.5 Z"/><text text-anchor="middle" pointer-events="none" font-size="8px" fill="#000000" x="132.39007833770688" y="3" transform="rotate(180 132.39007833770688 0)" font-family="sans-serif">LISTEN_ON</text></g><g class="relationship" transform="translate(349.6576561424491 -81.34715047372787) rotate(495.71430494299307)"><path class="outline" fill="#A5ABB6" stroke="none" d="M 25 0.5 L 148.45003968815706 0.5 L 148.45003968815706 -0.5 L 25 -0.5 Z M 200.45003968815706 0.5 L 323.9000793763141 0.5 L 323.9000793763141 3.5 L 330.9000793763141 0 L 323.9000793763141 -3.5 L 323.9000793763141 -0.5 L 200.45003968815706 -0.5 Z"/><text text-anchor="middle" pointer-events="none" font-size="8px" fill="#000000" x="174.45003968815706" y="3" transform="rotate(180 174.45003968815706 0)" font-family="sans-serif">USES_PORT</text></g><g class="relationship" transform="translate(-118.58507447494785 368.0405461827494) rotate(316.7390547655114)"><path class="outline" fill="#A5ABB6" stroke="none" d="M 25 0.5 L 118.56264380495779 0.5 L 118.56264380495779 -0.5 L 25 -0.5 Z M 167.5626438049578 0.5 L 261.1252876099156 0.5 L 261.1252876099156 3.5 L 268.1252876099156 0 L 261.1252876099156 -3.5 L 261.1252876099156 -0.5 L 167.5626438049578 -0.5 Z"/><text text-anchor="middle" pointer-events="none" font-size="8px" fill="#000000" x="143.0626438049578" y="3" font-family="sans-serif">LISTEN_ON</text></g><g class="relationship" transform="translate(349.6576561424491 -81.34715047372787) rotate(450.8039616122919)"><path class="outline" fill="#A5ABB6" stroke="none" d="M 25 0.5 L 79.39008498654937 0.5 L 79.39008498654937 -0.5 L 25 -0.5 Z M 131.39008498654937 0.5 L 185.78016997309874 0.5 L 185.78016997309874 3.5 L 192.78016997309874 0 L 185.78016997309874 -3.5 L 185.78016997309874 -0.5 L 131.39008498654937 -0.5 Z"/><text text-anchor="middle" pointer-events="none" font-size="8px" fill="#000000" x="105.39008498654937" y="3" transform="rotate(180 105.39008498654937 0)" font-family="sans-serif">USES_PORT</text></g><g class="relationship" transform="translate(303.3947404234103 370.03751041936164) rotate(280.47798747927374)"><path class="outline" fill="#A5ABB6" stroke="none" d="M 25 0.5 L 90.79387083499316 0.5 L 90.79387083499316 -0.5 L 25 -0.5 Z M 139.79387083499316 0.5 L 205.58774166998631 0.5 L 205.58774166998631 3.5 L 212.58774166998631 0 L 205.58774166998631 -3.5 L 205.58774166998631 -0.5 L 139.79387083499316 -0.5 Z"/><text text-anchor="middle" pointer-events="none" font-size="8px" fill="#000000" x="115.29387083499316" y="3" font-family="sans-serif">LISTEN_ON</text></g><g class="relationship" transform="translate(349.6576561424491 -81.34715047372787) rotate(505.30875806230074)"><path class="outline" fill="#A5ABB6" stroke="none" d="M 25 0.5 L 141.9719141289639 0.5 L 141.9719141289639 -0.5 L 25 -0.5 Z M 193.9719141289639 0.5 L 310.9438282579278 0.5 L 310.9438282579278 3.5 L 317.9438282579278 0 L 310.9438282579278 -3.5 L 310.9438282579278 -0.5 L 193.9719141289639 -0.5 Z"/><text text-anchor="middle" pointer-events="none" font-size="8px" fill="#000000" x="167.9719141289639" y="3" transform="rotate(180 167.9719141289639 0)" font-family="sans-serif">USES_PORT</text></g><g class="relationship" transform="translate(-118.58507447494785 368.0405461827494) rotate(306.2319055005703)"><path class="outline" fill="#A5ABB6" stroke="none" d="M 25 0.5 L 129.5688274530494 0.5 L 129.5688274530494 -0.5 L 25 -0.5 Z M 178.5688274530494 0.5 L 283.1376549060988 0.5 L 283.1376549060988 3.5 L 290.1376549060988 0 L 283.1376549060988 -3.5 L 283.1376549060988 -0.5 L 178.5688274530494 -0.5 Z"/><text text-anchor="middle" pointer-events="none" font-size="8px" fill="#000000" x="154.0688274530494" y="3" font-family="sans-serif">LISTEN_ON</text></g><g class="relationship" transform="translate(349.6576561424491 -81.34715047372787) rotate(389.4532582463659)"><path class="outline" fill="#A5ABB6" stroke="none" d="M 25 0.5 L 160.7200711754755 0.5 L 160.7200711754755 -0.5 L 25 -0.5 Z M 212.7200711754755 0.5 L 348.440142350951 0.5 L 348.440142350951 3.5 L 355.440142350951 0 L 348.440142350951 -3.5 L 348.440142350951 -0.5 L 212.7200711754755 -0.5 Z"/><text text-anchor="middle" pointer-events="none" font-size="8px" fill="#000000" x="186.7200711754755" y="3" font-family="sans-serif">USES_PORT</text></g><g class="relationship" transform="translate(962.864729731239 355.3672639491298) rotate(221.52403412543697)"><path class="outline" fill="#A5ABB6" stroke="none" d="M 25 0.5 L 160.28937226847242 0.5 L 160.28937226847242 -0.5 L 25 -0.5 Z M 209.28937226847242 0.5 L 344.57874453694484 0.5 L 344.57874453694484 3.5 L 351.57874453694484 0 L 344.57874453694484 -3.5 L 344.57874453694484 -0.5 L 209.28937226847242 -0.5 Z"/><text text-anchor="middle" pointer-events="none" font-size="8px" fill="#000000" x="184.78937226847242" y="3" transform="rotate(180 184.78937226847242 0)" font-family="sans-serif">LISTEN_ON</text></g><g class="relationship" transform="translate(349.6576561424491 -81.34715047372787) rotate(489.1915674129991)"><path class="outline" fill="#A5ABB6" stroke="none" d="M 25 0.5 L 169.38761813192778 0.5 L 169.38761813192778 -0.5 L 25 -0.5 Z M 221.38761813192778 0.5 L 365.77523626385556 0.5 L 365.77523626385556 3.5 L 372.77523626385556 0 L 365.77523626385556 -3.5 L 365.77523626385556 -0.5 L 221.38761813192778 -0.5 Z"/><text text-anchor="middle" pointer-events="none" font-size="8px" fill="#000000" x="195.38761813192778" y="3" transform="rotate(180 195.38761813192778 0)" font-family="sans-serif">USES_PORT</text></g><g class="relationship" transform="translate(-118.58507447494785 368.0405461827494) rotate(326.95323057629605)"><path class="outline" fill="#A5ABB6" stroke="none" d="M 25 0.5 L 101.36998539445557 0.5 L 101.36998539445557 -0.5 L 25 -0.5 Z M 150.36998539445557 0.5 L 226.73997078891114 0.5 L 226.73997078891114 3.5 L 233.73997078891114 0 L 226.73997078891114 -3.5 L 226.73997078891114 -0.5 L 150.36998539445557 -0.5 Z"/><text text-anchor="middle" pointer-events="none" font-size="8px" fill="#000000" x="125.86998539445557" y="3" font-family="sans-serif">LISTEN_ON</text></g><g class="relationship" transform="translate(174.44905792529846 -211.74677693051785) rotate(488.89541214053486)"><path class="outline" fill="#A5ABB6" stroke="none" d="M 25 0.5 L 49.13414494762071 0.5 L 49.13414494762071 -0.5 L 25 -0.5 Z M 119.13414494762071 0.5 L 143.26828989524142 0.5 L 143.26828989524142 3.5 L 150.26828989524142 0 L 143.26828989524142 -3.5 L 143.26828989524142 -0.5 L 119.13414494762071 -0.5 Z"/><text text-anchor="middle" pointer-events="none" font-size="8px" fill="#000000" x="84.13414494762071" y="3" transform="rotate(180 84.13414494762071 0)" font-family="sans-serif">HAS_INTERFACE</text></g><g class="relationship" transform="translate(64.3979691460521 -75.33661857966474) rotate(486.50829467678875)"><path class="outline" fill="#A5ABB6" stroke="none" d="M 25 0.5 L 85.66622275632744 0.5 L 85.66622275632744 -0.5 L 25 -0.5 Z M 137.66622275632744 0.5 L 198.33244551265489 0.5 L 198.33244551265489 3.5 L 205.33244551265489 0 L 198.33244551265489 -3.5 L 198.33244551265489 -0.5 L 137.66622275632744 -0.5 Z"/><text text-anchor="middle" pointer-events="none" font-size="8px" fill="#000000" x="111.66622275632744" y="3" transform="rotate(180 111.66622275632744 0)" font-family="sans-serif">USES_PORT</text></g><g class="relationship" transform="translate(-118.58507447494785 368.0405461827494) rotate(280.0890807242952)"><path class="outline" fill="#A5ABB6" stroke="none" d="M 25 0.5 L 103.14935952187784 0.5 L 103.14935952187784 -0.5 L 25 -0.5 Z M 152.14935952187784 0.5 L 230.29871904375568 0.5 L 230.29871904375568 3.5 L 237.29871904375568 0 L 230.29871904375568 -3.5 L 230.29871904375568 -0.5 L 152.14935952187784 -0.5 Z"/><text text-anchor="middle" pointer-events="none" font-size="8px" fill="#000000" x="127.64935952187784" y="3" font-family="sans-serif">LISTEN_ON</text></g><g class="relationship" transform="translate(64.3979691460521 -75.33661857966474) rotate(480.00566611161594)"><path class="outline" fill="#A5ABB6" stroke="none" d="M 25 0.5 L 111.83971582750124 0.5 L 111.83971582750124 -0.5 L 25 -0.5 Z M 163.83971582750124 0.5 L 250.67943165500247 0.5 L 250.67943165500247 3.5 L 257.6794316550025 0 L 250.67943165500247 -3.5 L 250.67943165500247 -0.5 L 163.83971582750124 -0.5 Z"/><text text-anchor="middle" pointer-events="none" font-size="8px" fill="#000000" x="137.83971582750124" y="3" transform="rotate(180 137.83971582750124 0)" font-family="sans-serif">USES_PORT</text></g><g class="relationship" transform="translate(-118.58507447494785 368.0405461827494) rotate(281.8367219968081)"><path class="outline" fill="#A5ABB6" stroke="none" d="M 25 0.5 L 73.44898606074707 0.5 L 73.44898606074707 -0.5 L 25 -0.5 Z M 122.44898606074707 0.5 L 170.89797212149415 0.5 L 170.89797212149415 3.5 L 177.89797212149415 0 L 170.89797212149415 -3.5 L 170.89797212149415 -0.5 L 122.44898606074707 -0.5 Z"/><text text-anchor="middle" pointer-events="none" font-size="8px" fill="#000000" x="97.94898606074707" y="3" font-family="sans-serif">LISTEN_ON</text></g><g class="relationship" transform="translate(64.3979691460521 -75.33661857966474) rotate(400.946997198966)"><path class="outline" fill="#A5ABB6" stroke="none" d="M 25 0.5 L 179.31766627093518 0.5 L 179.31766627093518 -0.5 L 25 -0.5 Z M 231.31766627093518 0.5 L 385.63533254187035 0.5 L 385.63533254187035 3.5 L 392.63533254187035 0 L 385.63533254187035 -3.5 L 385.63533254187035 -0.5 L 231.31766627093518 -0.5 Z"/><text text-anchor="middle" pointer-events="none" font-size="8px" fill="#000000" x="205.31766627093518" y="3" font-family="sans-serif">USES_PORT</text></g><g class="relationship" transform="translate(701.8997663234932 365.3111289313496) rotate(207.40119373306942)"><path class="outline" fill="#A5ABB6" stroke="none" d="M 25 0.5 L 153.37698732666317 0.5 L 153.37698732666317 -0.5 L 25 -0.5 Z M 202.37698732666317 0.5 L 330.75397465332634 0.5 L 330.75397465332634 3.5 L 337.75397465332634 0 L 330.75397465332634 -3.5 L 330.75397465332634 -0.5 L 202.37698732666317 -0.5 Z"/><text text-anchor="middle" pointer-events="none" font-size="8px" fill="#000000" x="177.87698732666317" y="3" transform="rotate(180 177.87698732666317 0)" font-family="sans-serif">LISTEN_ON</text></g><g class="relationship" transform="translate(64.3979691460521 -75.33661857966474) rotate(379.52114582412855)"><path class="outline" fill="#A5ABB6" stroke="none" d="M 25 0.5 L 215.34577234170206 0.5 L 215.34577234170206 -0.5 L 25 -0.5 Z M 267.34577234170206 0.5 L 457.6915446834041 0.5 L 457.6915446834041 3.5 L 464.6915446834041 0 L 457.6915446834041 -3.5 L 457.6915446834041 -0.5 L 267.34577234170206 -0.5 Z"/><text text-anchor="middle" pointer-events="none" font-size="8px" fill="#000000" x="241.34577234170206" y="3" font-family="sans-serif">USES_PORT</text></g><g class="relationship" transform="translate(962.864729731239 355.3672639491298) rotate(211.43551333443844)"><path class="outline" fill="#A5ABB6" stroke="none" d="M 25 0.5 L 228.04158944727828 0.5 L 228.04158944727828 -0.5 L 25 -0.5 Z M 277.0415894472783 0.5 L 480.08317889455657 0.5 L 480.08317889455657 3.5 L 487.08317889455657 0 L 480.08317889455657 -3.5 L 480.08317889455657 -0.5 L 277.0415894472783 -0.5 Z"/><text text-anchor="middle" pointer-events="none" font-size="8px" fill="#000000" x="252.54158944727828" y="3" transform="rotate(180 252.54158944727828 0)" font-family="sans-serif">LISTEN_ON</text></g><g class="relationship" transform="translate(64.3979691460521 -75.33661857966474) rotate(468.5306945710425)"><path class="outline" fill="#A5ABB6" stroke="none" d="M 25 0.5 L 119.17399332930503 0.5 L 119.17399332930503 -0.5 L 25 -0.5 Z M 171.17399332930503 0.5 L 265.34798665861007 0.5 L 265.34798665861007 3.5 L 272.34798665861007 0 L 265.34798665861007 -3.5 L 265.34798665861007 -0.5 L 171.17399332930503 -0.5 Z"/><text text-anchor="middle" pointer-events="none" font-size="8px" fill="#000000" x="145.17399332930503" y="3" transform="rotate(180 145.17399332930503 0)" font-family="sans-serif">USES_PORT</text></g><g class="relationship" transform="translate(-118.58507447494785 368.0405461827494) rotate(298.72544113088725)"><path class="outline" fill="#A5ABB6" stroke="none" d="M 25 0.5 L 64.05130256678972 0.5 L 64.05130256678972 -0.5 L 25 -0.5 Z M 113.05130256678972 0.5 L 152.10260513357943 0.5 L 152.10260513357943 3.5 L 159.10260513357943 0 L 152.10260513357943 -3.5 L 152.10260513357943 -0.5 L 113.05130256678972 -0.5 Z"/><text text-anchor="middle" pointer-events="none" font-size="8px" fill="#000000" x="88.55130256678972" y="3" font-family="sans-serif">LISTEN_ON</text></g><g class="relationship" transform="translate(64.3979691460521 -75.33661857966474) rotate(409.9573322896932)"><path class="outline" fill="#A5ABB6" stroke="none" d="M 25 0.5 L 73.96170757761449 0.5 L 73.96170757761449 -0.5 L 25 -0.5 Z M 125.96170757761449 0.5 L 174.92341515522898 0.5 L 174.92341515522898 3.5 L 181.92341515522898 0 L 174.92341515522898 -3.5 L 174.92341515522898 -0.5 L 125.96170757761449 -0.5 Z"/><text text-anchor="middle" pointer-events="none" font-size="8px" fill="#000000" x="99.96170757761449" y="3" font-family="sans-serif">USES_PORT</text></g><g class="relationship" transform="translate(303.3947404234103 370.03751041936164) rotate(249.749021131608)"><path class="outline" fill="#A5ABB6" stroke="none" d="M 25 0.5 L 124.93388895543822 0.5 L 124.93388895543822 -0.5 L 25 -0.5 Z M 173.93388895543822 0.5 L 273.86777791087644 0.5 L 273.86777791087644 3.5 L 280.86777791087644 0 L 273.86777791087644 -3.5 L 273.86777791087644 -0.5 L 173.93388895543822 -0.5 Z"/><text text-anchor="middle" pointer-events="none" font-size="8px" fill="#000000" x="149.43388895543822" y="3" transform="rotate(180 149.43388895543822 0)" font-family="sans-serif">LISTEN_ON</text></g><g class="relationship" transform="translate(174.44905792529846 -211.74677693051785) rotate(518.1815354587495)"><path class="outline" fill="#A5ABB6" stroke="none" d="M 25 0.5 L 147.66546743244868 0.5 L 147.66546743244868 -0.5 L 25 -0.5 Z M 217.66546743244868 0.5 L 340.33093486489736 0.5 L 340.33093486489736 3.5 L 347.33093486489736 0 L 340.33093486489736 -3.5 L 340.33093486489736 -0.5 L 217.66546743244868 -0.5 Z"/><text text-anchor="middle" pointer-events="none" font-size="8px" fill="#000000" x="182.66546743244868" y="3" transform="rotate(180 182.66546743244868 0)" font-family="sans-serif">HAS_INTERFACE</text></g><g class="relationship" transform="translate(-171.21035963293363 -73.36364172007336) rotate(445.7571550159677)"><path class="outline" fill="#A5ABB6" stroke="none" d="M 25 0.5 L 67.88278195121386 0.5 L 67.88278195121386 -0.5 L 25 -0.5 Z M 119.88278195121386 0.5 L 162.76556390242771 0.5 L 162.76556390242771 3.5 L 169.76556390242771 0 L 162.76556390242771 -3.5 L 162.76556390242771 -0.5 L 119.88278195121386 -0.5 Z"/><text text-anchor="middle" pointer-events="none" font-size="8px" fill="#000000" x="93.88278195121386" y="3" font-family="sans-serif">USES_PORT</text></g><g class="relationship" transform="translate(-118.58507447494785 368.0405461827494) rotate(261.2109909262339)"><path class="outline" fill="#A5ABB6" stroke="none" d="M 25 0.5 L 97.05462377938842 0.5 L 97.05462377938842 -0.5 L 25 -0.5 Z M 146.0546237793884 0.5 L 218.10924755877684 0.5 L 218.10924755877684 3.5 L 225.10924755877684 0 L 218.10924755877684 -3.5 L 218.10924755877684 -0.5 L 146.0546237793884 -0.5 Z"/><text text-anchor="middle" pointer-events="none" font-size="8px" fill="#000000" x="121.55462377938842" y="3" transform="rotate(180 121.55462377938842 0)" font-family="sans-serif">LISTEN_ON</text></g><g class="relationship" transform="translate(-171.21035963293363 -73.36364172007336) rotate(376.36728944113804)"><path class="outline" fill="#A5ABB6" stroke="none" d="M 25 0.5 L 270.15127907372954 0.5 L 270.15127907372954 -0.5 L 25 -0.5 Z M 322.15127907372954 0.5 L 567.3025581474591 0.5 L 567.3025581474591 3.5 L 574.3025581474591 0 L 567.3025581474591 -3.5 L 567.3025581474591 -0.5 L 322.15127907372954 -0.5 Z"/><text text-anchor="middle" pointer-events="none" font-size="8px" fill="#000000" x="296.15127907372954" y="3" font-family="sans-serif">USES_PORT</text></g><g class="relationship" transform="translate(962.864729731239 355.3672639491298) rotate(204.92904348700011)"><path class="outline" fill="#A5ABB6" stroke="none" d="M 25 0.5 L 280.2490491913236 0.5 L 280.2490491913236 -0.5 L 25 -0.5 Z M 329.2490491913236 0.5 L 584.4980983826472 0.5 L 584.4980983826472 3.5 L 591.4980983826472 0 L 584.4980983826472 -3.5 L 584.4980983826472 -0.5 L 329.2490491913236 -0.5 Z"/><text text-anchor="middle" pointer-events="none" font-size="8px" fill="#000000" x="304.7490491913236" y="3" transform="rotate(180 304.7490491913236 0)" font-family="sans-serif">LISTEN_ON</text></g><g class="relationship" transform="translate(-171.21035963293363 -73.36364172007336) rotate(411.3046639105759)"><path class="outline" fill="#A5ABB6" stroke="none" d="M 25 0.5 L 138.71453030626313 0.5 L 138.71453030626313 -0.5 L 25 -0.5 Z M 190.71453030626313 0.5 L 304.42906061252626 0.5 L 304.42906061252626 3.5 L 311.42906061252626 0 L 304.42906061252626 -3.5 L 304.42906061252626 -0.5 L 190.71453030626313 -0.5 Z"/><text text-anchor="middle" pointer-events="none" font-size="8px" fill="#000000" x="164.71453030626313" y="3" font-family="sans-serif">USES_PORT</text></g><g class="relationship" transform="translate(303.3947404234103 370.03751041936164) rotate(214.38088808659995)"><path class="outline" fill="#A5ABB6" stroke="none" d="M 25 0.5 L 132.10908964770783 0.5 L 132.10908964770783 -0.5 L 25 -0.5 Z M 181.10908964770783 0.5 L 288.21817929541567 0.5 L 288.21817929541567 3.5 L 295.21817929541567 0 L 288.21817929541567 -3.5 L 288.21817929541567 -0.5 L 181.10908964770783 -0.5 Z"/><text text-anchor="middle" pointer-events="none" font-size="8px" fill="#000000" x="156.60908964770783" y="3" transform="rotate(180 156.60908964770783 0)" font-family="sans-serif">LISTEN_ON</text></g><g class="relationship" transform="translate(-171.21035963293363 -73.36364172007336) rotate(443.1286659322632)"><path class="outline" fill="#A5ABB6" stroke="none" d="M 25 0.5 L 97.33667286642171 0.5 L 97.33667286642171 -0.5 L 25 -0.5 Z M 149.3366728664217 0.5 L 221.67334573284342 0.5 L 221.67334573284342 3.5 L 228.67334573284342 0 L 221.67334573284342 -3.5 L 221.67334573284342 -0.5 L 149.3366728664217 -0.5 Z"/><text text-anchor="middle" pointer-events="none" font-size="8px" fill="#000000" x="123.33667286642171" y="3" font-family="sans-serif">USES_PORT</text></g><g class="relationship" transform="translate(-118.58507447494785 368.0405461827494) rotate(263.2974881047275)"><path class="outline" fill="#A5ABB6" stroke="none" d="M 25 0.5 L 67.42865173039873 0.5 L 67.42865173039873 -0.5 L 25 -0.5 Z M 116.42865173039873 0.5 L 158.85730346079745 0.5 L 158.85730346079745 3.5 L 165.85730346079745 0 L 158.85730346079745 -3.5 L 158.85730346079745 -0.5 L 116.42865173039873 -0.5 Z"/><text text-anchor="middle" pointer-events="none" font-size="8px" fill="#000000" x="91.92865173039873" y="3" transform="rotate(180 91.92865173039873 0)" font-family="sans-serif">LISTEN_ON</text></g><g class="relationship" transform="translate(-171.21035963293363 -73.36364172007336) rotate(388.2253304455447)"><path class="outline" fill="#A5ABB6" stroke="none" d="M 25 0.5 L 247.55044899857165 0.5 L 247.55044899857165 -0.5 L 25 -0.5 Z M 299.55044899857165 0.5 L 522.1008979971433 0.5 L 522.1008979971433 3.5 L 529.1008979971433 0 L 522.1008979971433 -3.5 L 522.1008979971433 -0.5 L 299.55044899857165 -0.5 Z"/><text text-anchor="middle" pointer-events="none" font-size="8px" fill="#000000" x="273.55044899857165" y="3" font-family="sans-serif">USES_PORT</text></g><g class="relationship" transform="translate(701.8997663234932 365.3111289313496) rotate(204.64913999771534)"><path class="outline" fill="#A5ABB6" stroke="none" d="M 25 0.5 L 183.74160988469862 0.5 L 183.74160988469862 -0.5 L 25 -0.5 Z M 232.74160988469862 0.5 L 391.48321976939724 0.5 L 391.48321976939724 3.5 L 398.48321976939724 0 L 391.48321976939724 -3.5 L 391.48321976939724 -0.5 L 232.74160988469862 -0.5 Z"/><text text-anchor="middle" pointer-events="none" font-size="8px" fill="#000000" x="208.24160988469862" y="3" transform="rotate(180 208.24160988469862 0)" font-family="sans-serif">LISTEN_ON</text></g><g class="relationship" transform="translate(-171.21035963293363 -73.36364172007336) rotate(454.3779563307456)"><path class="outline" fill="#A5ABB6" stroke="none" d="M 25 0.5 L 111.62254375709816 0.5 L 111.62254375709816 -0.5 L 25 -0.5 Z M 163.62254375709816 0.5 L 250.2450875141963 0.5 L 250.2450875141963 3.5 L 257.2450875141963 0 L 250.2450875141963 -3.5 L 250.2450875141963 -0.5 L 163.62254375709816 -0.5 Z"/><text text-anchor="middle" pointer-events="none" font-size="8px" fill="#000000" x="137.62254375709816" y="3" transform="rotate(180 137.62254375709816 0)" font-family="sans-serif">USES_PORT</text></g><g class="relationship" transform="translate(-118.58507447494785 368.0405461827494) rotate(245.12678491671386)"><path class="outline" fill="#A5ABB6" stroke="none" d="M 25 0.5 L 60.16989192934531 0.5 L 60.16989192934531 -0.5 L 25 -0.5 Z M 109.16989192934531 0.5 L 144.33978385869062 0.5 L 144.33978385869062 3.5 L 151.33978385869062 0 L 144.33978385869062 -3.5 L 144.33978385869062 -0.5 L 109.16989192934531 -0.5 Z"/><text text-anchor="middle" pointer-events="none" font-size="8px" fill="#000000" x="84.66989192934531" y="3" transform="rotate(180 84.66989192934531 0)" font-family="sans-serif">LISTEN_ON</text></g><g class="relationship" transform="translate(174.44905792529846 -211.74677693051785) rotate(371.12312854912284)"><path class="outline" fill="#A5ABB6" stroke="none" d="M 25 0.5 L 254.7396941586951 0.5 L 254.7396941586951 -0.5 L 25 -0.5 Z M 324.7396941586951 0.5 L 554.4793883173902 0.5 L 554.4793883173902 3.5 L 561.4793883173902 0 L 554.4793883173902 -3.5 L 554.4793883173902 -0.5 L 324.7396941586951 -0.5 Z"/><text text-anchor="middle" pointer-events="none" font-size="8px" fill="#000000" x="289.7396941586951" y="3" font-family="sans-serif">HAS_INTERFACE</text></g><g class="relationship" transform="translate(749.9113540047441 -98.60430607137246) rotate(422.6781549857194)"><path class="outline" fill="#A5ABB6" stroke="none" d="M 25 0.5 L 92.73906202714538 0.5 L 92.73906202714538 -0.5 L 25 -0.5 Z M 144.7390620271454 0.5 L 212.47812405429076 0.5 L 212.47812405429076 3.5 L 219.47812405429076 0 L 212.47812405429076 -3.5 L 212.47812405429076 -0.5 L 144.7390620271454 -0.5 Z"/><text text-anchor="middle" pointer-events="none" font-size="8px" fill="#000000" x="118.73906202714538" y="3" font-family="sans-serif">USES_PORT</text></g><g class="relationship" transform="translate(962.864729731239 355.3672639491298) rotate(246.95097031366333)"><path class="outline" fill="#A5ABB6" stroke="none" d="M 25 0.5 L 100.65384818960186 0.5 L 100.65384818960186 -0.5 L 25 -0.5 Z M 149.65384818960186 0.5 L 225.30769637920372 0.5 L 225.30769637920372 3.5 L 232.30769637920372 0 L 225.30769637920372 -3.5 L 225.30769637920372 -0.5 L 149.65384818960186 -0.5 Z"/><text text-anchor="middle" pointer-events="none" font-size="8px" fill="#000000" x="125.15384818960186" y="3" transform="rotate(180 125.15384818960186 0)" font-family="sans-serif">LISTEN_ON</text></g><g class="relationship" transform="translate(749.9113540047441 -98.60430607137246) rotate(506.48727609810726)"><path class="outline" fill="#A5ABB6" stroke="none" d="M 25 0.5 L 259.97745370058493 0.5 L 259.97745370058493 -0.5 L 25 -0.5 Z M 311.97745370058493 0.5 L 546.9549074011699 0.5 L 546.9549074011699 3.5 L 553.9549074011699 0 L 546.9549074011699 -3.5 L 546.9549074011699 -0.5 L 311.97745370058493 -0.5 Z"/><text text-anchor="middle" pointer-events="none" font-size="8px" fill="#000000" x="285.97745370058493" y="3" transform="rotate(180 285.97745370058493 0)" font-family="sans-serif">USES_PORT</text></g><g class="relationship" transform="translate(-118.58507447494785 368.0405461827494) rotate(339.1422655862996)"><path class="outline" fill="#A5ABB6" stroke="none" d="M 25 0.5 L 178.41978748885668 0.5 L 178.41978748885668 -0.5 L 25 -0.5 Z M 227.41978748885668 0.5 L 380.83957497771337 0.5 L 380.83957497771337 3.5 L 387.83957497771337 0 L 380.83957497771337 -3.5 L 380.83957497771337 -0.5 L 227.41978748885668 -0.5 Z"/><text text-anchor="middle" pointer-events="none" font-size="8px" fill="#000000" x="202.91978748885668" y="3" font-family="sans-serif">LISTEN_ON</text></g><g class="relationship" transform="translate(749.9113540047441 -98.60430607137246) rotate(448.5748142916641)"><path class="outline" fill="#A5ABB6" stroke="none" d="M 25 0.5 L 94.60960145821895 0.5 L 94.60960145821895 -0.5 L 25 -0.5 Z M 146.60960145821895 0.5 L 216.2192029164379 0.5 L 216.2192029164379 3.5 L 223.2192029164379 0 L 216.2192029164379 -3.5 L 216.2192029164379 -0.5 L 146.60960145821895 -0.5 Z"/><text text-anchor="middle" pointer-events="none" font-size="8px" fill="#000000" x="120.60960145821895" y="3" font-family="sans-serif">USES_PORT</text></g><g class="relationship" transform="translate(701.8997663234932 365.3111289313496) rotate(284.09669413075517)"><path class="outline" fill="#A5ABB6" stroke="none" d="M 25 0.5 L 83.23627019048772 0.5 L 83.23627019048772 -0.5 L 25 -0.5 Z M 132.23627019048772 0.5 L 190.47254038097543 0.5 L 190.47254038097543 3.5 L 197.47254038097543 0 L 190.47254038097543 -3.5 L 190.47254038097543 -0.5 L 132.23627019048772 -0.5 Z"/><text text-anchor="middle" pointer-events="none" font-size="8px" fill="#000000" x="107.73627019048772" y="3" font-family="sans-serif">LISTEN_ON</text></g><g class="relationship" transform="translate(749.9113540047441 -98.60430607137246) rotate(512.3187532066331)"><path class="outline" fill="#A5ABB6" stroke="none" d="M 25 0.5 L 242.08632366703824 0.5 L 242.08632366703824 -0.5 L 25 -0.5 Z M 294.08632366703824 0.5 L 511.1726473340765 0.5 L 511.1726473340765 3.5 L 518.1726473340765 0 L 511.1726473340765 -3.5 L 511.1726473340765 -0.5 L 294.08632366703824 -0.5 Z"/><text text-anchor="middle" pointer-events="none" font-size="8px" fill="#000000" x="268.08632366703824" y="3" transform="rotate(180 268.08632366703824 0)" font-family="sans-serif">USES_PORT</text></g><g class="relationship" transform="translate(-118.58507447494785 368.0405461827494) rotate(331.05405509793036)"><path class="outline" fill="#A5ABB6" stroke="none" d="M 25 0.5 L 193.40471268166556 0.5 L 193.40471268166556 -0.5 L 25 -0.5 Z M 242.40471268166556 0.5 L 410.8094253633311 0.5 L 410.8094253633311 3.5 L 417.8094253633311 0 L 410.8094253633311 -3.5 L 410.8094253633311 -0.5 L 242.40471268166556 -0.5 Z"/><text text-anchor="middle" pointer-events="none" font-size="8px" fill="#000000" x="217.90471268166556" y="3" font-family="sans-serif">LISTEN_ON</text></g><g class="relationship" transform="translate(749.9113540047441 -98.60430607137246) rotate(517.9158699343054)"><path class="outline" fill="#A5ABB6" stroke="none" d="M 25 0.5 L 226.86635262196648 0.5 L 226.86635262196648 -0.5 L 25 -0.5 Z M 278.8663526219665 0.5 L 480.73270524393297 0.5 L 480.73270524393297 3.5 L 487.73270524393297 0 L 480.73270524393297 -3.5 L 480.73270524393297 -0.5 L 278.8663526219665 -0.5 Z"/><text text-anchor="middle" pointer-events="none" font-size="8px" fill="#000000" x="252.86635262196648" y="3" transform="rotate(180 252.86635262196648 0)" font-family="sans-serif">USES_PORT</text></g><g class="relationship" transform="translate(-118.58507447494785 368.0405461827494) rotate(325.15419068200333)"><path class="outline" fill="#A5ABB6" stroke="none" d="M 25 0.5 L 211.66431629657004 0.5 L 211.66431629657004 -0.5 L 25 -0.5 Z M 260.66431629657006 0.5 L 447.32863259314007 0.5 L 447.32863259314007 3.5 L 454.32863259314007 0 L 447.32863259314007 -3.5 L 447.32863259314007 -0.5 L 260.66431629657006 -0.5 Z"/><text text-anchor="middle" pointer-events="none" font-size="8px" fill="#000000" x="236.16431629657004" y="3" font-family="sans-serif">LISTEN_ON</text></g><g class="relationship" transform="translate(749.9113540047441 -98.60430607137246) rotate(485.1358249123777)"><path class="outline" fill="#A5ABB6" stroke="none" d="M 25 0.5 L 142.86109549235934 0.5 L 142.86109549235934 -0.5 L 25 -0.5 Z M 194.86109549235934 0.5 L 312.7221909847187 0.5 L 312.7221909847187 3.5 L 319.7221909847187 0 L 312.7221909847187 -3.5 L 312.7221909847187 -0.5 L 194.86109549235934 -0.5 Z"/><text text-anchor="middle" pointer-events="none" font-size="8px" fill="#000000" x="168.86109549235934" y="3" transform="rotate(180 168.86109549235934 0)" font-family="sans-serif">USES_PORT</text></g><g class="relationship" transform="translate(303.3947404234103 370.03751041936164) rotate(323.03578059161833)"><path class="outline" fill="#A5ABB6" stroke="none" d="M 25 0.5 L 127.26893884226794 0.5 L 127.26893884226794 -0.5 L 25 -0.5 Z M 176.26893884226794 0.5 L 278.5378776845359 0.5 L 278.5378776845359 3.5 L 285.5378776845359 0 L 278.5378776845359 -3.5 L 278.5378776845359 -0.5 L 176.26893884226794 -0.5 Z"/><text text-anchor="middle" pointer-events="none" font-size="8px" fill="#000000" x="151.76893884226794" y="3" font-family="sans-serif">LISTEN_ON</text></g><g class="relationship" transform="translate(174.44905792529846 -211.74677693051785) rotate(367.79058202634315)"><path class="outline" fill="#A5ABB6" stroke="none" d="M 25 0.5 L 433.23737539682014 0.5 L 433.23737539682014 -0.5 L 25 -0.5 Z M 503.23737539682014 0.5 L 911.4747507936403 0.5 L 911.4747507936403 3.5 L 918.4747507936403 0 L 911.4747507936403 -3.5 L 911.4747507936403 -0.5 L 503.23737539682014 -0.5 Z"/><text text-anchor="middle" pointer-events="none" font-size="8px" fill="#000000" x="468.23737539682014" y="3" font-family="sans-serif">HAS_INTERFACE</text></g><g class="relationship" transform="translate(1109.215664408444 -83.85621125381947) rotate(514.6324682832362)"><path class="outline" fill="#A5ABB6" stroke="none" d="M 25 0.5 L 328.8668281331659 0.5 L 328.8668281331659 -0.5 L 25 -0.5 Z M 380.8668281331659 0.5 L 684.7336562663318 0.5 L 684.7336562663318 3.5 L 691.7336562663318 0 L 684.7336562663318 -3.5 L 684.7336562663318 -0.5 L 380.8668281331659 -0.5 Z"/><text text-anchor="middle" pointer-events="none" font-size="8px" fill="#000000" x="354.8668281331659" y="3" transform="rotate(180 354.8668281331659 0)" font-family="sans-serif">USES_PORT</text></g><g class="relationship" transform="translate(-118.58507447494785 368.0405461827494) rotate(345.9835092584907)"><path class="outline" fill="#A5ABB6" stroke="none" d="M 25 0.5 L 270.9900221403474 0.5 L 270.9900221403474 -0.5 L 25 -0.5 Z M 319.9900221403474 0.5 L 565.9800442806948 0.5 L 565.9800442806948 3.5 L 572.9800442806948 0 L 565.9800442806948 -3.5 L 565.9800442806948 -0.5 L 319.9900221403474 -0.5 Z"/><text text-anchor="middle" pointer-events="none" font-size="8px" fill="#000000" x="295.4900221403474" y="3" font-family="sans-serif">LISTEN_ON</text></g><g class="relationship" transform="translate(1109.215664408444 -83.85621125381947) rotate(471.26736695549454)"><path class="outline" fill="#A5ABB6" stroke="none" d="M 25 0.5 L 87.39574573091022 0.5 L 87.39574573091022 -0.5 L 25 -0.5 Z M 139.39574573091022 0.5 L 201.79149146182044 0.5 L 201.79149146182044 3.5 L 208.79149146182044 0 L 201.79149146182044 -3.5 L 201.79149146182044 -0.5 L 139.39574573091022 -0.5 Z"/><text text-anchor="middle" pointer-events="none" font-size="8px" fill="#000000" x="113.39574573091022" y="3" transform="rotate(180 113.39574573091022 0)" font-family="sans-serif">USES_PORT</text></g><g class="relationship" transform="translate(962.864729731239 355.3672639491298) rotate(285.5392091983055)"><path class="outline" fill="#A5ABB6" stroke="none" d="M 25 0.5 L 86.87584651381566 0.5 L 86.87584651381566 -0.5 L 25 -0.5 Z M 135.87584651381565 0.5 L 197.75169302763132 0.5 L 197.75169302763132 3.5 L 204.75169302763132 0 L 197.75169302763132 -3.5 L 197.75169302763132 -0.5 L 135.87584651381565 -0.5 Z"/><text text-anchor="middle" pointer-events="none" font-size="8px" fill="#000000" x="111.37584651381566" y="3" font-family="sans-serif">LISTEN_ON</text></g><g class="relationship" transform="translate(1109.215664408444 -83.85621125381947) rotate(519.3790062369904)"><path class="outline" fill="#A5ABB6" stroke="none" d="M 25 0.5 L 331.84011562110106 0.5 L 331.84011562110106 -0.5 L 25 -0.5 Z M 383.84011562110106 0.5 L 690.6802312422021 0.5 L 690.6802312422021 3.5 L 697.6802312422021 0 L 690.6802312422021 -3.5 L 690.6802312422021 -0.5 L 383.84011562110106 -0.5 Z"/><text text-anchor="middle" pointer-events="none" font-size="8px" fill="#000000" x="357.84011562110106" y="3" transform="rotate(180 357.84011562110106 0)" font-family="sans-serif">USES_PORT</text></g><g class="relationship" transform="translate(-118.58507447494785 368.0405461827494) rotate(340.30532695297074)"><path class="outline" fill="#A5ABB6" stroke="none" d="M 25 0.5 L 264.84180955283574 0.5 L 264.84180955283574 -0.5 L 25 -0.5 Z M 313.84180955283574 0.5 L 553.6836191056715 0.5 L 553.6836191056715 3.5 L 560.6836191056715 0 L 553.6836191056715 -3.5 L 553.6836191056715 -0.5 L 313.84180955283574 -0.5 Z"/><text text-anchor="middle" pointer-events="none" font-size="8px" fill="#000000" x="289.34180955283574" y="3" font-family="sans-serif">LISTEN_ON</text></g><g class="relationship" transform="translate(1109.215664408444 -83.85621125381947) rotate(507.380603546325)"><path class="outline" fill="#A5ABB6" stroke="none" d="M 25 0.5 L 211.8939932980042 0.5 L 211.8939932980042 -0.5 L 25 -0.5 Z M 263.8939932980042 0.5 L 450.7879865960084 0.5 L 450.7879865960084 3.5 L 457.7879865960084 0 L 450.7879865960084 -3.5 L 450.7879865960084 -0.5 L 263.8939932980042 -0.5 Z"/><text text-anchor="middle" pointer-events="none" font-size="8px" fill="#000000" x="237.8939932980042" y="3" transform="rotate(180 237.8939932980042 0)" font-family="sans-serif">USES_PORT</text></g><g class="relationship" transform="translate(303.3947404234103 370.03751041936164) rotate(334.1219463583418)"><path class="outline" fill="#A5ABB6" stroke="none" d="M 25 0.5 L 193.83617016281232 0.5 L 193.83617016281232 -0.5 L 25 -0.5 Z M 242.83617016281232 0.5 L 411.67234032562465 0.5 L 411.67234032562465 3.5 L 418.67234032562465 0 L 411.67234032562465 -3.5 L 411.67234032562465 -0.5 L 242.83617016281232 -0.5 Z"/><text text-anchor="middle" pointer-events="none" font-size="8px" fill="#000000" x="218.33617016281232" y="3" font-family="sans-serif">LISTEN_ON</text></g><g class="relationship" transform="translate(1109.215664408444 -83.85621125381947) rotate(489.9020777369435)"><path class="outline" fill="#A5ABB6" stroke="none" d="M 25 0.5 L 124.47528981705477 0.5 L 124.47528981705477 -0.5 L 25 -0.5 Z M 176.47528981705477 0.5 L 275.95057963410954 0.5 L 275.95057963410954 3.5 L 282.95057963410954 0 L 275.95057963410954 -3.5 L 275.95057963410954 -0.5 L 176.47528981705477 -0.5 Z"/><text text-anchor="middle" pointer-events="none" font-size="8px" fill="#000000" x="150.47528981705477" y="3" transform="rotate(180 150.47528981705477 0)" font-family="sans-serif">USES_PORT</text></g><g class="relationship" transform="translate(701.8997663234932 365.3111289313496) rotate(314.57262513133094)"><path class="outline" fill="#A5ABB6" stroke="none" d="M 25 0.5 L 121.45050246131598 0.5 L 121.45050246131598 -0.5 L 25 -0.5 Z M 170.45050246131598 0.5 L 266.90100492263196 0.5 L 266.90100492263196 3.5 L 273.90100492263196 0 L 266.90100492263196 -3.5 L 266.90100492263196 -0.5 L 170.45050246131598 -0.5 Z"/><text text-anchor="middle" pointer-events="none" font-size="8px" fill="#000000" x="145.95050246131598" y="3" font-family="sans-serif">LISTEN_ON</text></g><g class="relationship" transform="translate(1109.215664408444 -83.85621125381947) rotate(517.4846242270517)"><path class="outline" fill="#A5ABB6" stroke="none" d="M 25 0.5 L 304.40437375694495 0.5 L 304.40437375694495 -0.5 L 25 -0.5 Z M 356.40437375694495 0.5 L 635.8087475138899 0.5 L 635.8087475138899 3.5 L 642.8087475138899 0 L 635.8087475138899 -3.5 L 635.8087475138899 -0.5 L 356.40437375694495 -0.5 Z"/><text text-anchor="middle" pointer-events="none" font-size="8px" fill="#000000" x="330.40437375694495" y="3" transform="rotate(180 330.40437375694495 0)" font-family="sans-serif">USES_PORT</text></g><g class="relationship" transform="translate(-118.58507447494785 368.0405461827494) rotate(342.19701706847854)"><path class="outline" fill="#A5ABB6" stroke="none" d="M 25 0.5 L 292.80971657901364 0.5 L 292.80971657901364 -0.5 L 25 -0.5 Z M 341.80971657901364 0.5 L 609.6194331580273 0.5 L 609.6194331580273 3.5 L 616.6194331580273 0 L 609.6194331580273 -3.5 L 609.6194331580273 -0.5 L 341.80971657901364 -0.5 Z"/><text text-anchor="middle" pointer-events="none" font-size="8px" fill="#000000" x="317.30971657901364" y="3" font-family="sans-serif">LISTEN_ON</text></g><g class="relationship" transform="translate(174.44905792529846 -211.74677693051785) rotate(378.0088236780814)"><path class="outline" fill="#A5ABB6" stroke="none" d="M 25 0.5 L 155.81489838842631 0.5 L 155.81489838842631 -0.5 L 25 -0.5 Z M 225.81489838842631 0.5 L 356.62979677685263 0.5 L 356.62979677685263 3.5 L 363.62979677685263 0 L 356.62979677685263 -3.5 L 356.62979677685263 -0.5 L 225.81489838842631 -0.5 Z"/><text text-anchor="middle" pointer-events="none" font-size="8px" fill="#000000" x="190.81489838842631" y="3" font-family="sans-serif">HAS_INTERFACE</text></g><g class="relationship" transform="translate(544.0394595705363 -91.59664603367065) rotate(398.350515749626)"><path class="outline" fill="#A5ABB6" stroke="none" d="M 25 0.5 L 120.18219962423257 0.5 L 120.18219962423257 -0.5 L 25 -0.5 Z M 172.18219962423257 0.5 L 267.36439924846513 0.5 L 267.36439924846513 3.5 L 274.36439924846513 0 L 267.36439924846513 -3.5 L 267.36439924846513 -0.5 L 172.18219962423257 -0.5 Z"/><text text-anchor="middle" pointer-events="none" font-size="8px" fill="#000000" x="146.18219962423257" y="3" font-family="sans-serif">USES_PORT</text></g><g class="relationship" transform="translate(962.864729731239 355.3672639491298) rotate(234.83128634056038)"><path class="outline" fill="#A5ABB6" stroke="none" d="M 25 0.5 L 131.7737008850067 0.5 L 131.7737008850067 -0.5 L 25 -0.5 Z M 180.7737008850067 0.5 L 287.5474017700134 0.5 L 287.5474017700134 3.5 L 294.5474017700134 0 L 287.5474017700134 -3.5 L 287.5474017700134 -0.5 L 180.7737008850067 -0.5 Z"/><text text-anchor="middle" pointer-events="none" font-size="8px" fill="#000000" x="156.2737008850067" y="3" transform="rotate(180 156.2737008850067 0)" font-family="sans-serif">LISTEN_ON</text></g><g class="relationship" transform="translate(544.0394595705363 -91.59664603367065) rotate(472.0535980317159)"><path class="outline" fill="#A5ABB6" stroke="none" d="M 25 0.5 L 83.08859181035206 0.5 L 83.08859181035206 -0.5 L 25 -0.5 Z M 135.08859181035206 0.5 L 193.1771836207041 0.5 L 193.1771836207041 3.5 L 200.1771836207041 0 L 193.1771836207041 -3.5 L 193.1771836207041 -0.5 L 135.08859181035206 -0.5 Z"/><text text-anchor="middle" pointer-events="none" font-size="8px" fill="#000000" x="109.08859181035206" y="3" transform="rotate(180 109.08859181035206 0)" font-family="sans-serif">USES_PORT</text></g><g class="relationship" transform="translate(303.3947404234103 370.03751041936164) rotate(301.6806944264541)"><path class="outline" fill="#A5ABB6" stroke="none" d="M 25 0.5 L 120.61106911591887 0.5 L 120.61106911591887 -0.5 L 25 -0.5 Z M 169.61106911591887 0.5 L 265.22213823183773 0.5 L 265.22213823183773 3.5 L 272.22213823183773 0 L 265.22213823183773 -3.5 L 265.22213823183773 -0.5 L 169.61106911591887 -0.5 Z"/><text text-anchor="middle" pointer-events="none" font-size="8px" fill="#000000" x="145.11106911591887" y="3" font-family="sans-serif">LISTEN_ON</text></g><g class="relationship" transform="translate(544.0394595705363 -91.59664603367065) rotate(496.8278423028907)"><path class="outline" fill="#A5ABB6" stroke="none" d="M 25 0.5 L 204.47454146171148 0.5 L 204.47454146171148 -0.5 L 25 -0.5 Z M 256.4745414617115 0.5 L 435.94908292342296 0.5 L 435.94908292342296 3.5 L 442.94908292342296 0 L 435.94908292342296 -3.5 L 435.94908292342296 -0.5 L 256.4745414617115 -0.5 Z"/><text text-anchor="middle" pointer-events="none" font-size="8px" fill="#000000" x="230.47454146171148" y="3" transform="rotate(180 230.47454146171148 0)" font-family="sans-serif">USES_PORT</text></g><g class="relationship" transform="translate(-118.58507447494785 368.0405461827494) rotate(336.5384868821078)"><path class="outline" fill="#A5ABB6" stroke="none" d="M 25 0.5 L 147.15480305723597 0.5 L 147.15480305723597 -0.5 L 25 -0.5 Z M 196.15480305723597 0.5 L 318.30960611447193 0.5 L 318.30960611447193 3.5 L 325.30960611447193 0 L 318.30960611447193 -3.5 L 318.30960611447193 -0.5 L 196.15480305723597 -0.5 Z"/><text text-anchor="middle" pointer-events="none" font-size="8px" fill="#000000" x="171.65480305723597" y="3" font-family="sans-serif">LISTEN_ON</text></g><g class="relationship" transform="translate(544.0394595705363 -91.59664603367065) rotate(511.2177586488775)"><path class="outline" fill="#A5ABB6" stroke="none" d="M 25 0.5 L 193.55987177997935 0.5 L 193.55987177997935 -0.5 L 25 -0.5 Z M 245.55987177997935 0.5 L 414.1197435599587 0.5 L 414.1197435599587 3.5 L 421.1197435599587 0 L 414.1197435599587 -3.5 L 414.1197435599587 -0.5 L 245.55987177997935 -0.5 Z"/><text text-anchor="middle" pointer-events="none" font-size="8px" fill="#000000" x="219.55987177997935" y="3" transform="rotate(180 219.55987177997935 0)" font-family="sans-serif">USES_PORT</text></g><g class="relationship" transform="translate(-118.58507447494785 368.0405461827494) rotate(317.9684925922647)"><path class="outline" fill="#A5ABB6" stroke="none" d="M 25 0.5 L 154.84109368434287 0.5 L 154.84109368434287 -0.5 L 25 -0.5 Z M 203.84109368434287 0.5 L 333.68218736868573 0.5 L 333.68218736868573 3.5 L 340.68218736868573 0 L 333.68218736868573 -3.5 L 333.68218736868573 -0.5 L 203.84109368434287 -0.5 Z"/><text text-anchor="middle" pointer-events="none" font-size="8px" fill="#000000" x="179.34109368434287" y="3" font-family="sans-serif">LISTEN_ON</text></g><g class="relationship" transform="translate(544.0394595705363 -91.59664603367065) rotate(429.038667101614)"><path class="outline" fill="#A5ABB6" stroke="none" d="M 25 0.5 L 95.93906320323747 0.5 L 95.93906320323747 -0.5 L 25 -0.5 Z M 147.93906320323748 0.5 L 218.87812640647493 0.5 L 218.87812640647493 3.5 L 225.87812640647493 0 L 218.87812640647493 -3.5 L 218.87812640647493 -0.5 L 147.93906320323748 -0.5 Z"/><text text-anchor="middle" pointer-events="none" font-size="8px" fill="#000000" x="121.93906320323747" y="3" font-family="sans-serif">USES_PORT</text></g><g class="relationship" transform="translate(701.8997663234932 365.3111289313496) rotate(252.98912625915057)"><path class="outline" fill="#A5ABB6" stroke="none" d="M 25 0.5 L 88.40910803425946 0.5 L 88.40910803425946 -0.5 L 25 -0.5 Z M 137.40910803425948 0.5 L 200.81821606851892 0.5 L 200.81821606851892 3.5 L 207.81821606851892 0 L 200.81821606851892 -3.5 L 200.81821606851892 -0.5 L 137.40910803425948 -0.5 Z"/><text text-anchor="middle" pointer-events="none" font-size="8px" fill="#000000" x="112.90910803425946" y="3" transform="rotate(180 112.90910803425946 0)" font-family="sans-serif">LISTEN_ON</text></g><g class="relationship" transform="translate(544.0394595705363 -91.59664603367065) rotate(504.151945629295)"><path class="outline" fill="#A5ABB6" stroke="none" d="M 25 0.5 L 203.89657096893174 0.5 L 203.89657096893174 -0.5 L 25 -0.5 Z M 255.89657096893174 0.5 L 434.7931419378635 0.5 L 434.7931419378635 3.5 L 441.7931419378635 0 L 434.7931419378635 -3.5 L 434.7931419378635 -0.5 L 255.89657096893174 -0.5 Z"/><text text-anchor="middle" pointer-events="none" font-size="8px" fill="#000000" x="229.89657096893174" y="3" transform="rotate(180 229.89657096893174 0)" font-family="sans-serif">USES_PORT</text></g><g class="relationship" transform="translate(-118.58507447494785 368.0405461827494) rotate(326.76409810537064)"><path class="outline" fill="#A5ABB6" stroke="none" d="M 25 0.5 L 141.9231826992088 0.5 L 141.9231826992088 -0.5 L 25 -0.5 Z M 190.9231826992088 0.5 L 307.8463653984176 0.5 L 307.8463653984176 3.5 L 314.8463653984176 0 L 307.8463653984176 -3.5 L 307.8463653984176 -0.5 L 190.9231826992088 -0.5 Z"/><text text-anchor="middle" pointer-events="none" font-size="8px" fill="#000000" x="166.4231826992088" y="3" font-family="sans-serif">LISTEN_ON</text></g><g class="relationship" transform="translate(174.44905792529846 -211.74677693051785) rotate(531.1370203247996)"><path class="outline" fill="#A5ABB6" stroke="none" d="M 25 0.5 L 388.1429529138982 0.5 L 388.1429529138982 -0.5 L 25 -0.5 Z M 458.1429529138982 0.5 L 821.2859058277965 0.5 L 821.2859058277965 3.5 L 828.2859058277965 0 L 821.2859058277965 -3.5 L 821.2859058277965 -0.5 L 458.1429529138982 -0.5 Z"/><text text-anchor="middle" pointer-events="none" font-size="8px" fill="#000000" x="423.1429529138982" y="3" transform="rotate(180 423.1429529138982 0)" font-family="sans-serif">HAS_INTERFACE</text></g><g class="relationship" transform="translate(-668.648291666433 -80.2793049240901) rotate(408.7950640883005)"><path class="outline" fill="#A5ABB6" stroke="none" d="M 25 0.5 L 158.40981311478032 0.5 L 158.40981311478032 -0.5 L 25 -0.5 Z M 210.40981311478032 0.5 L 343.81962622956064 0.5 L 343.81962622956064 3.5 L 350.81962622956064 0 L 343.81962622956064 -3.5 L 343.81962622956064 -0.5 L 210.40981311478032 -0.5 Z"/><text text-anchor="middle" pointer-events="none" font-size="8px" fill="#000000" x="184.40981311478032" y="3" font-family="sans-serif">USES_PORT</text></g><g class="relationship" transform="translate(-118.58507447494785 368.0405461827494) rotate(208.6942016469502)"><path class="outline" fill="#A5ABB6" stroke="none" d="M 25 0.5 L 144.41919676672816 0.5 L 144.41919676672816 -0.5 L 25 -0.5 Z M 193.41919676672816 0.5 L 312.8383935334563 0.5 L 312.8383935334563 3.5 L 319.8383935334563 0 L 312.8383935334563 -3.5 L 312.8383935334563 -0.5 L 193.41919676672816 -0.5 Z"/><text text-anchor="middle" pointer-events="none" font-size="8px" fill="#000000" x="168.91919676672816" y="3" transform="rotate(180 168.91919676672816 0)" font-family="sans-serif">LISTEN_ON</text></g><g class="relationship" transform="translate(-668.648291666433 -80.2793049240901) rotate(393.19703682469157)"><path class="outline" fill="#A5ABB6" stroke="none" d="M 25 0.5 L 139.98067884239518 0.5 L 139.98067884239518 -0.5 L 25 -0.5 Z M 191.98067884239518 0.5 L 306.96135768479036 0.5 L 306.96135768479036 3.5 L 313.96135768479036 0 L 306.96135768479036 -3.5 L 306.96135768479036 -0.5 L 191.98067884239518 -0.5 Z"/><text text-anchor="middle" pointer-events="none" font-size="8px" fill="#000000" x="165.98067884239518" y="3" font-family="sans-serif">USES_PORT</text></g><g class="relationship" transform="translate(-118.58507447494785 368.0405461827494) rotate(224.60034120183212)"><path class="outline" fill="#A5ABB6" stroke="none" d="M 25 0.5 L 159.08895345695612 0.5 L 159.08895345695612 -0.5 L 25 -0.5 Z M 208.08895345695612 0.5 L 342.17790691391224 0.5 L 342.17790691391224 3.5 L 349.17790691391224 0 L 342.17790691391224 -3.5 L 342.17790691391224 -0.5 L 208.08895345695612 -0.5 Z"/><text text-anchor="middle" pointer-events="none" font-size="8px" fill="#000000" x="183.58895345695612" y="3" transform="rotate(180 183.58895345695612 0)" font-family="sans-serif">LISTEN_ON</text></g><g class="relationship" transform="translate(-668.648291666433 -80.2793049240901) rotate(403.28894026498773)"><path class="outline" fill="#A5ABB6" stroke="none" d="M 25 0.5 L 133.70405849686085 0.5 L 133.70405849686085 -0.5 L 25 -0.5 Z M 185.70405849686085 0.5 L 294.4081169937217 0.5 L 294.4081169937217 3.5 L 301.4081169937217 0 L 294.4081169937217 -3.5 L 294.4081169937217 -0.5 L 185.70405849686085 -0.5 Z"/><text text-anchor="middle" pointer-events="none" font-size="8px" fill="#000000" x="159.70405849686085" y="3" font-family="sans-serif">USES_PORT</text></g><g class="relationship" transform="translate(-118.58507447494785 368.0405461827494) rotate(215.69724570885512)"><path class="outline" fill="#A5ABB6" stroke="none" d="M 25 0.5 L 164.38063094808086 0.5 L 164.38063094808086 -0.5 L 25 -0.5 Z M 213.38063094808086 0.5 L 352.7612618961617 0.5 L 352.7612618961617 3.5 L 359.7612618961617 0 L 352.7612618961617 -3.5 L 352.7612618961617 -0.5 L 213.38063094808086 -0.5 Z"/><text text-anchor="middle" pointer-events="none" font-size="8px" fill="#000000" x="188.88063094808086" y="3" transform="rotate(180 188.88063094808086 0)" font-family="sans-serif">LISTEN_ON</text></g><g class="relationship" transform="translate(-668.648291666433 -80.2793049240901) rotate(371.06438438901944)"><path class="outline" fill="#A5ABB6" stroke="none" d="M 25 0.5 L 371.9079665313436 0.5 L 371.9079665313436 -0.5 L 25 -0.5 Z M 423.9079665313436 0.5 L 770.8159330626872 0.5 L 770.8159330626872 3.5 L 777.8159330626872 0 L 770.8159330626872 -3.5 L 770.8159330626872 -0.5 L 423.9079665313436 -0.5 Z"/><text text-anchor="middle" pointer-events="none" font-size="8px" fill="#000000" x="397.9079665313436" y="3" font-family="sans-serif">USES_PORT</text></g><g class="relationship" transform="translate(962.864729731239 355.3672639491298) rotate(198.45756380071924)"><path class="outline" fill="#A5ABB6" stroke="none" d="M 25 0.5 L 416.6851694806733 0.5 L 416.6851694806733 -0.5 L 25 -0.5 Z M 465.6851694806733 0.5 L 857.3703389613466 0.5 L 857.3703389613466 3.5 L 864.3703389613466 0 L 857.3703389613466 -3.5 L 857.3703389613466 -0.5 L 465.6851694806733 -0.5 Z"/><text text-anchor="middle" pointer-events="none" font-size="8px" fill="#000000" x="441.1851694806733" y="3" transform="rotate(180 441.1851694806733 0)" font-family="sans-serif">LISTEN_ON</text></g><g class="relationship" transform="translate(-668.648291666433 -80.2793049240901) rotate(374.10530110574877)"><path class="outline" fill="#A5ABB6" stroke="none" d="M 25 0.5 L 313.78602444266033 0.5 L 313.78602444266033 -0.5 L 25 -0.5 Z M 365.78602444266033 0.5 L 654.5720488853207 0.5 L 654.5720488853207 3.5 L 661.5720488853207 0 L 654.5720488853207 -3.5 L 654.5720488853207 -0.5 L 365.78602444266033 -0.5 Z"/><text text-anchor="middle" pointer-events="none" font-size="8px" fill="#000000" x="339.78602444266033" y="3" font-family="sans-serif">USES_PORT</text></g><g class="relationship" transform="translate(701.8997663234932 365.3111289313496) rotate(201.54855775896158)"><path class="outline" fill="#A5ABB6" stroke="none" d="M 25 0.5 L 350.81491164848137 0.5 L 350.81491164848137 -0.5 L 25 -0.5 Z M 399.81491164848137 0.5 L 725.6298232969627 0.5 L 725.6298232969627 3.5 L 732.6298232969627 0 L 725.6298232969627 -3.5 L 725.6298232969627 -0.5 L 399.81491164848137 -0.5 Z"/><text text-anchor="middle" pointer-events="none" font-size="8px" fill="#000000" x="375.31491164848137" y="3" transform="rotate(180 375.31491164848137 0)" font-family="sans-serif">LISTEN_ON</text></g><g class="relationship" transform="translate(-668.648291666433 -80.2793049240901) rotate(399.8066988356128)"><path class="outline" fill="#A5ABB6" stroke="none" d="M 25 0.5 L 161.50756041605814 0.5 L 161.50756041605814 -0.5 L 25 -0.5 Z M 213.50756041605814 0.5 L 350.0151208321163 0.5 L 350.0151208321163 3.5 L 357.0151208321163 0 L 350.0151208321163 -3.5 L 350.0151208321163 -0.5 L 213.50756041605814 -0.5 Z"/><text text-anchor="middle" pointer-events="none" font-size="8px" fill="#000000" x="187.50756041605814" y="3" font-family="sans-serif">USES_PORT</text></g><g class="relationship" transform="translate(-118.58507447494785 368.0405461827494) rotate(218.45187871394774)"><path class="outline" fill="#A5ABB6" stroke="none" d="M 25 0.5 L 135.82698377235008 0.5 L 135.82698377235008 -0.5 L 25 -0.5 Z M 184.82698377235008 0.5 L 295.65396754470015 0.5 L 295.65396754470015 3.5 L 302.65396754470015 0 L 295.65396754470015 -3.5 L 295.65396754470015 -0.5 L 184.82698377235008 -0.5 Z"/><text text-anchor="middle" pointer-events="none" font-size="8px" fill="#000000" x="160.32698377235008" y="3" transform="rotate(180 160.32698377235008 0)" font-family="sans-serif">LISTEN_ON</text></g><g class="relationship" transform="translate(-668.648291666433 -80.2793049240901) rotate(416.8533375569987)"><path class="outline" fill="#A5ABB6" stroke="none" d="M 25 0.5 L 56.99484756483993 0.5 L 56.99484756483993 -0.5 L 25 -0.5 Z M 108.99484756483993 0.5 L 140.98969512967986 0.5 L 140.98969512967986 3.5 L 147.98969512967986 0 L 140.98969512967986 -3.5 L 140.98969512967986 -0.5 L 108.99484756483993 -0.5 Z"/><text text-anchor="middle" pointer-events="none" font-size="8px" fill="#000000" x="82.99484756483993" y="3" font-family="sans-serif">USES_PORT</text></g><g class="relationship" transform="translate(-411.40433602331325 358.296519911237) rotate(241.02457041250904)"><path class="outline" fill="#A5ABB6" stroke="none" d="M 25 0.5 L 139.8822939961894 0.5 L 139.8822939961894 -0.5 L 25 -0.5 Z M 188.8822939961894 0.5 L 303.7645879923788 0.5 L 303.7645879923788 3.5 L 310.7645879923788 0 L 303.7645879923788 -3.5 L 303.7645879923788 -0.5 L 188.8822939961894 -0.5 Z"/><text text-anchor="middle" pointer-events="none" font-size="8px" fill="#000000" x="164.3822939961894" y="3" transform="rotate(180 164.3822939961894 0)" font-family="sans-serif">LISTEN_ON</text></g><g class="relationship" transform="translate(-668.648291666433 -80.2793049240901) rotate(441.2526756187716)"><path class="outline" fill="#A5ABB6" stroke="none" d="M 25 0.5 L 63.81691133061537 0.5 L 63.81691133061537 -0.5 L 25 -0.5 Z M 115.81691133061537 0.5 L 154.63382266123074 0.5 L 154.63382266123074 3.5 L 161.63382266123074 0 L 154.63382266123074 -3.5 L 154.63382266123074 -0.5 L 115.81691133061537 -0.5 Z"/><text text-anchor="middle" pointer-events="none" font-size="8px" fill="#000000" x="89.81691133061537" y="3" font-family="sans-serif">USES_PORT</text></g><g class="relationship" transform="translate(-582.8903502857514 365.9186051551679) rotate(257.63570428773534)"><path class="outline" fill="#A5ABB6" stroke="none" d="M 25 0.5 L 105.97487509275558 0.5 L 105.97487509275558 -0.5 L 25 -0.5 Z M 154.97487509275558 0.5 L 235.94975018551116 0.5 L 235.94975018551116 3.5 L 242.94975018551116 0 L 235.94975018551116 -3.5 L 235.94975018551116 -0.5 L 154.97487509275558 -0.5 Z"/><text text-anchor="middle" pointer-events="none" font-size="8px" fill="#000000" x="130.47487509275558" y="3" transform="rotate(180 130.47487509275558 0)" font-family="sans-serif">LISTEN_ON</text></g><g class="relationship" transform="translate(-668.648291666433 -80.2793049240901) rotate(386.632243030013)"><path class="outline" fill="#A5ABB6" stroke="none" d="M 25 0.5 L 227.6446188367222 0.5 L 227.6446188367222 -0.5 L 25 -0.5 Z M 279.6446188367222 0.5 L 482.2892376734444 0.5 L 482.2892376734444 3.5 L 489.2892376734444 0 L 482.2892376734444 -3.5 L 482.2892376734444 -0.5 L 279.6446188367222 -0.5 Z"/><text text-anchor="middle" pointer-events="none" font-size="8px" fill="#000000" x="253.6446188367222" y="3" font-family="sans-serif">USES_PORT</text></g><g class="relationship" transform="translate(303.3947404234103 370.03751041936164) rotate(203.2189194268587)"><path class="outline" fill="#A5ABB6" stroke="none" d="M 25 0.5 L 250.73552196513316 0.5 L 250.73552196513316 -0.5 L 25 -0.5 Z M 299.73552196513316 0.5 L 525.4710439302663 0.5 L 525.4710439302663 3.5 L 532.4710439302663 0 L 525.4710439302663 -3.5 L 525.4710439302663 -0.5 L 299.73552196513316 -0.5 Z"/><text text-anchor="middle" pointer-events="none" font-size="8px" fill="#000000" x="275.23552196513316" y="3" transform="rotate(180 275.23552196513316 0)" font-family="sans-serif">LISTEN_ON</text></g><g class="relationship" transform="translate(174.44905792529846 -211.74677693051785) rotate(526.2109592865721)"><path class="outline" fill="#A5ABB6" stroke="none" d="M 25 0.5 L 224.60673088591568 0.5 L 224.60673088591568 -0.5 L 25 -0.5 Z M 294.6067308859157 0.5 L 494.21346177183136 0.5 L 494.21346177183136 3.5 L 501.21346177183136 0 L 494.21346177183136 -3.5 L 494.21346177183136 -0.5 L 294.6067308859157 -0.5 Z"/><text text-anchor="middle" pointer-events="none" font-size="8px" fill="#000000" x="259.6067308859157" y="3" transform="rotate(180 259.6067308859157 0)" font-family="sans-serif">HAS_INTERFACE</text></g><g class="relationship" transform="translate(-336.59887282797933 -86.32500919186867) rotate(382.6439467985518)"><path class="outline" fill="#A5ABB6" stroke="none" d="M 25 0.5 L 266.48868812095117 0.5 L 266.48868812095117 -0.5 L 25 -0.5 Z M 318.48868812095117 0.5 L 559.9773762419023 0.5 L 559.9773762419023 3.5 L 566.9773762419023 0 L 559.9773762419023 -3.5 L 559.9773762419023 -0.5 L 318.48868812095117 -0.5 Z"/><text text-anchor="middle" pointer-events="none" font-size="8px" fill="#000000" x="292.48868812095117" y="3" font-family="sans-serif">USES_PORT</text></g><g class="relationship" transform="translate(701.8997663234932 365.3111289313496) rotate(204.4455600699622)"><path class="outline" fill="#A5ABB6" stroke="none" d="M 25 0.5 L 242.30872167147453 0.5 L 242.30872167147453 -0.5 L 25 -0.5 Z M 291.30872167147453 0.5 L 508.61744334294906 0.5 L 508.61744334294906 3.5 L 515.6174433429491 0 L 508.61744334294906 -3.5 L 508.61744334294906 -0.5 L 291.30872167147453 -0.5 Z"/><text text-anchor="middle" pointer-events="none" font-size="8px" fill="#000000" x="266.80872167147453" y="3" transform="rotate(180 266.80872167147453 0)" font-family="sans-serif">LISTEN_ON</text></g><g class="relationship" transform="translate(-336.59887282797933 -86.32500919186867) rotate(435.1988276202606)"><path class="outline" fill="#A5ABB6" stroke="none" d="M 25 0.5 L 92.45873891185961 0.5 L 92.45873891185961 -0.5 L 25 -0.5 Z M 144.4587389118596 0.5 L 211.91747782371922 0.5 L 211.91747782371922 3.5 L 218.91747782371922 0 L 211.91747782371922 -3.5 L 211.91747782371922 -0.5 L 144.4587389118596 -0.5 Z"/><text text-anchor="middle" pointer-events="none" font-size="8px" fill="#000000" x="118.45873891185961" y="3" font-family="sans-serif">USES_PORT</text></g><g class="relationship" transform="translate(-118.58507447494785 368.0405461827494) rotate(234.53181098295545)"><path class="outline" fill="#A5ABB6" stroke="none" d="M 25 0.5 L 106.16721764471413 0.5 L 106.16721764471413 -0.5 L 25 -0.5 Z M 155.16721764471413 0.5 L 236.33443528942826 0.5 L 236.33443528942826 3.5 L 243.33443528942826 0 L 236.33443528942826 -3.5 L 236.33443528942826 -0.5 L 155.16721764471413 -0.5 Z"/><text text-anchor="middle" pointer-events="none" font-size="8px" fill="#000000" x="130.66721764471413" y="3" transform="rotate(180 130.66721764471413 0)" font-family="sans-serif">LISTEN_ON</text></g><g class="relationship" transform="translate(-336.59887282797933 -86.32500919186867) rotate(396.23141702833766)"><path class="outline" fill="#A5ABB6" stroke="none" d="M 25 0.5 L 164.86822831884857 0.5 L 164.86822831884857 -0.5 L 25 -0.5 Z M 216.86822831884857 0.5 L 356.73645663769713 0.5 L 356.73645663769713 3.5 L 363.73645663769713 0 L 356.73645663769713 -3.5 L 356.73645663769713 -0.5 L 216.86822831884857 -0.5 Z"/><text text-anchor="middle" pointer-events="none" font-size="8px" fill="#000000" x="190.86822831884857" y="3" font-family="sans-serif">USES_PORT</text></g><g class="relationship" transform="translate(303.3947404234103 370.03751041936164) rotate(214.76797782314372)"><path class="outline" fill="#A5ABB6" stroke="none" d="M 25 0.5 L 170.68372230732186 0.5 L 170.68372230732186 -0.5 L 25 -0.5 Z M 219.68372230732186 0.5 L 365.3674446146437 0.5 L 365.3674446146437 3.5 L 372.3674446146437 0 L 365.3674446146437 -3.5 L 365.3674446146437 -0.5 L 219.68372230732186 -0.5 Z"/><text text-anchor="middle" pointer-events="none" font-size="8px" fill="#000000" x="195.18372230732186" y="3" transform="rotate(180 195.18372230732186 0)" font-family="sans-serif">LISTEN_ON</text></g><g class="relationship" transform="translate(-336.59887282797933 -86.32500919186867) rotate(436.0051506227823)"><path class="outline" fill="#A5ABB6" stroke="none" d="M 25 0.5 L 122.24771189686942 0.5 L 122.24771189686942 -0.5 L 25 -0.5 Z M 174.24771189686942 0.5 L 271.49542379373884 0.5 L 271.49542379373884 3.5 L 278.49542379373884 0 L 271.49542379373884 -3.5 L 271.49542379373884 -0.5 L 174.24771189686942 -0.5 Z"/><text text-anchor="middle" pointer-events="none" font-size="8px" fill="#000000" x="148.24771189686942" y="3" font-family="sans-serif">USES_PORT</text></g><g class="relationship" transform="translate(-118.58507447494785 368.0405461827494) rotate(227.86911053386314)"><path class="outline" fill="#A5ABB6" stroke="none" d="M 25 0.5 L 79.79096733885815 0.5 L 79.79096733885815 -0.5 L 25 -0.5 Z M 128.79096733885814 0.5 L 183.5819346777163 0.5 L 183.5819346777163 3.5 L 190.5819346777163 0 L 183.5819346777163 -3.5 L 183.5819346777163 -0.5 L 128.79096733885814 -0.5 Z"/><text text-anchor="middle" pointer-events="none" font-size="8px" fill="#000000" x="104.29096733885815" y="3" transform="rotate(180 104.29096733885815 0)" font-family="sans-serif">LISTEN_ON</text></g><g class="relationship" transform="translate(-336.59887282797933 -86.32500919186867) rotate(373.80714254441045)"><path class="outline" fill="#A5ABB6" stroke="none" d="M 25 0.5 L 315.05680892356617 0.5 L 315.05680892356617 -0.5 L 25 -0.5 Z M 367.05680892356617 0.5 L 657.1136178471323 0.5 L 657.1136178471323 3.5 L 664.1136178471323 0 L 657.1136178471323 -3.5 L 657.1136178471323 -0.5 L 367.05680892356617 -0.5 Z"/><text text-anchor="middle" pointer-events="none" font-size="8px" fill="#000000" x="341.05680892356617" y="3" font-family="sans-serif">USES_PORT</text></g><g class="relationship" transform="translate(962.864729731239 355.3672639491298) rotate(203.74315806743397)"><path class="outline" fill="#A5ABB6" stroke="none" d="M 25 0.5 L 316.27030932551 0.5 L 316.27030932551 -0.5 L 25 -0.5 Z M 365.27030932551 0.5 L 656.54061865102 0.5 L 656.54061865102 3.5 L 663.54061865102 0 L 656.54061865102 -3.5 L 656.54061865102 -0.5 L 365.27030932551 -0.5 Z"/><text text-anchor="middle" pointer-events="none" font-size="8px" fill="#000000" x="340.77030932551" y="3" transform="rotate(180 340.77030932551 0)" font-family="sans-serif">LISTEN_ON</text></g><g class="relationship" transform="translate(-336.59887282797933 -86.32500919186867) rotate(422.79811551679546)"><path class="outline" fill="#A5ABB6" stroke="none" d="M 25 0.5 L 75.15177749897842 0.5 L 75.15177749897842 -0.5 L 25 -0.5 Z M 127.15177749897842 0.5 L 177.30355499795684 0.5 L 177.30355499795684 3.5 L 184.30355499795684 0 L 177.30355499795684 -3.5 L 177.30355499795684 -0.5 L 127.15177749897842 -0.5 Z"/><text text-anchor="middle" pointer-events="none" font-size="8px" fill="#000000" x="101.15177749897842" y="3" font-family="sans-serif">USES_PORT</text></g><g class="relationship" transform="translate(-118.58507447494785 368.0405461827494) rotate(245.48146521857234)"><path class="outline" fill="#A5ABB6" stroke="none" d="M 25 0.5 L 119.39652256782361 0.5 L 119.39652256782361 -0.5 L 25 -0.5 Z M 168.3965225678236 0.5 L 262.7930451356472 0.5 L 262.7930451356472 3.5 L 269.7930451356472 0 L 262.7930451356472 -3.5 L 262.7930451356472 -0.5 L 168.3965225678236 -0.5 Z"/><text text-anchor="middle" pointer-events="none" font-size="8px" fill="#000000" x="143.8965225678236" y="3" transform="rotate(180 143.8965225678236 0)" font-family="sans-serif">LISTEN_ON</text></g></g><g class="layer nodes"><g class="node" transform="translate(174.44905792529846,-211.74677693051785)"><circle class="outline" cx="0" cy="0" r="25" fill="#57C7E3" stroke="#23b3d7" stroke-width="2px"/><text text-anchor="middle" pointer-events="none" font-family="sans-serif" dy="1.5625" font-size="25" fill="#FFFFFF"/><text text-anchor="middle" pointer-events="none" y="5" font-size="10px" fill="#FFFFFF" font-family="sans-serif"> pythag…</text></g><g class="node" transform="translate(349.6576561424491,-81.34715047372787)"><circle class="outline" cx="0" cy="0" r="25" fill="#569480" stroke="#447666" stroke-width="2px"/><text text-anchor="middle" pointer-events="none" font-family="sans-serif" dy="1.5625" font-size="25" fill="#FFFFFF"/><text text-anchor="middle" pointer-events="none" y="5" font-size="10px" fill="#FFFFFF" font-family="sans-serif"> br-f8fef…</text></g><g class="node" transform="translate(571.5410800782553,126.8345756123114)"><circle class="outline" cx="0" cy="0" r="25" fill="#4C8EDA" stroke="#2870c2" stroke-width="2px"/><text text-anchor="middle" pointer-events="none" font-family="sans-serif" dy="1.5625" font-size="25" fill="#FFFFFF"/><text text-anchor="middle" pointer-events="none" y="5" font-size="10px" fill="#FFFFFF" font-family="sans-serif"> 1716</text></g><g class="node" transform="translate(701.8997663234932,365.3111289313496)"><circle class="outline" cx="0" cy="0" r="25" fill="#8DCC93" stroke="#5db665" stroke-width="2px"/><text text-anchor="middle" pointer-events="none" font-family="sans-serif" dy="1.5625" font-size="25" fill="#604A0E"/><text text-anchor="middle" pointer-events="none" y="5" font-size="10px" fill="#604A0E" font-family="sans-serif"> kdecon…</text></g><g class="node" transform="translate(94.88050426954862,167.15530300228852)"><circle class="outline" cx="0" cy="0" r="25" fill="#4C8EDA" stroke="#2870c2" stroke-width="2px"/><text text-anchor="middle" pointer-events="none" font-family="sans-serif" dy="1.5625" font-size="25" fill="#FFFFFF"/><text text-anchor="middle" pointer-events="none" y="5" font-size="10px" fill="#FFFFFF" font-family="sans-serif"> 7687</text></g><g class="node" transform="translate(-118.58507447494785,368.0405461827494)"><circle class="outline" cx="0" cy="0" r="25" fill="#8DCC93" stroke="#5db665" stroke-width="2px"/><text text-anchor="middle" pointer-events="none" font-family="sans-serif" dy="1.5625" font-size="25" fill="#604A0E"/><text text-anchor="middle" pointer-events="none" y="5" font-size="10px" fill="#604A0E" font-family="sans-serif"> java</text></g><g class="node" transform="translate(346.60191359697336,136.4115803983259)"><circle class="outline" cx="0" cy="0" r="25" fill="#4C8EDA" stroke="#2870c2" stroke-width="2px"/><text text-anchor="middle" pointer-events="none" font-family="sans-serif" dy="1.5625" font-size="25" fill="#FFFFFF"/><text text-anchor="middle" pointer-events="none" y="5" font-size="10px" fill="#FFFFFF" font-family="sans-serif"> 631</text></g><g class="node" transform="translate(303.3947404234103,370.03751041936164)"><circle class="outline" cx="0" cy="0" r="25" fill="#8DCC93" stroke="#5db665" stroke-width="2px"/><text text-anchor="middle" pointer-events="none" font-family="sans-serif" dy="1.5625" font-size="25" fill="#604A0E"/><text text-anchor="middle" pointer-events="none" y="5" font-size="10px" fill="#604A0E" font-family="sans-serif"> cupsd</text></g><g class="node" transform="translate(67.6785922118677,113.8406484406411)"><circle class="outline" cx="0" cy="0" r="25" fill="#4C8EDA" stroke="#2870c2" stroke-width="2px"/><text text-anchor="middle" pointer-events="none" font-family="sans-serif" dy="1.5625" font-size="25" fill="#FFFFFF"/><text text-anchor="middle" pointer-events="none" y="5" font-size="10px" fill="#FFFFFF" font-family="sans-serif"> 7474</text></g><g class="node" transform="translate(680.9286204194269,105.7203510839002)"><circle class="outline" cx="0" cy="0" r="25" fill="#4C8EDA" stroke="#2870c2" stroke-width="2px"/><text text-anchor="middle" pointer-events="none" font-family="sans-serif" dy="1.5625" font-size="25" fill="#FFFFFF"/><text text-anchor="middle" pointer-events="none" y="5" font-size="10px" fill="#FFFFFF" font-family="sans-serif"> 80</text></g><g class="node" transform="translate(962.864729731239,355.3672639491298)"><circle class="outline" cx="0" cy="0" r="25" fill="#8DCC93" stroke="#5db665" stroke-width="2px"/><text text-anchor="middle" pointer-events="none" font-family="sans-serif" dy="1.5625" font-size="25" fill="#604A0E"/><text text-anchor="middle" pointer-events="none" y="5" font-size="10px" fill="#604A0E" font-family="sans-serif"> apache2</text></g><g class="node" transform="translate(98.29742134811943,226.94357424711998)"><circle class="outline" cx="0" cy="0" r="25" fill="#4C8EDA" stroke="#2870c2" stroke-width="2px"/><text text-anchor="middle" pointer-events="none" font-family="sans-serif" dy="1.5625" font-size="25" fill="#FFFFFF"/><text text-anchor="middle" pointer-events="none" y="5" font-size="10px" fill="#FFFFFF" font-family="sans-serif"> 7473</text></g><g class="node" transform="translate(64.3979691460521,-75.33661857966474)"><circle class="outline" cx="0" cy="0" r="25" fill="#569480" stroke="#447666" stroke-width="2px"/><text text-anchor="middle" pointer-events="none" font-family="sans-serif" dy="1.5625" font-size="25" fill="#FFFFFF"/><text text-anchor="middle" pointer-events="none" y="5" font-size="10px" fill="#FFFFFF" font-family="sans-serif"> br-8a43…</text></g><g class="node" transform="translate(-72.63582122031676,109.79786160613482)"><circle class="outline" cx="0" cy="0" r="25" fill="#4C8EDA" stroke="#2870c2" stroke-width="2px"/><text text-anchor="middle" pointer-events="none" font-family="sans-serif" dy="1.5625" font-size="25" fill="#FFFFFF"/><text text-anchor="middle" pointer-events="none" y="5" font-size="10px" fill="#FFFFFF" font-family="sans-serif"> 7687</text></g><g class="node" transform="translate(-76.96595557468324,169.45697175379453)"><circle class="outline" cx="0" cy="0" r="25" fill="#4C8EDA" stroke="#2870c2" stroke-width="2px"/><text text-anchor="middle" pointer-events="none" font-family="sans-serif" dy="1.5625" font-size="25" fill="#FFFFFF"/><text text-anchor="middle" pointer-events="none" y="5" font-size="10px" fill="#FFFFFF" font-family="sans-serif"> 7473</text></g><g class="node" transform="translate(379.8446847857521,198.365117950239)"><circle class="outline" cx="0" cy="0" r="25" fill="#4C8EDA" stroke="#2870c2" stroke-width="2px"/><text text-anchor="middle" pointer-events="none" font-family="sans-serif" dy="1.5625" font-size="25" fill="#FFFFFF"/><text text-anchor="middle" pointer-events="none" y="5" font-size="10px" fill="#FFFFFF" font-family="sans-serif"> 1716</text></g><g class="node" transform="translate(525.9411774384259,88.29612818454758)"><circle class="outline" cx="0" cy="0" r="25" fill="#4C8EDA" stroke="#2870c2" stroke-width="2px"/><text text-anchor="middle" pointer-events="none" font-family="sans-serif" dy="1.5625" font-size="25" fill="#FFFFFF"/><text text-anchor="middle" pointer-events="none" y="5" font-size="10px" fill="#FFFFFF" font-family="sans-serif"> 80</text></g><g class="node" transform="translate(-30.10298188779054,206.5949252809473)"><circle class="outline" cx="0" cy="0" r="25" fill="#4C8EDA" stroke="#2870c2" stroke-width="2px"/><text text-anchor="middle" pointer-events="none" font-family="sans-serif" dy="1.5625" font-size="25" fill="#FFFFFF"/><text text-anchor="middle" pointer-events="none" y="5" font-size="10px" fill="#FFFFFF" font-family="sans-serif"> 7474</text></g><g class="node" transform="translate(197.52378268947575,83.07681995351287)"><circle class="outline" cx="0" cy="0" r="25" fill="#4C8EDA" stroke="#2870c2" stroke-width="2px"/><text text-anchor="middle" pointer-events="none" font-family="sans-serif" dy="1.5625" font-size="25" fill="#FFFFFF"/><text text-anchor="middle" pointer-events="none" y="5" font-size="10px" fill="#FFFFFF" font-family="sans-serif"> 631</text></g><g class="node" transform="translate(-171.21035963293363,-73.36364172007336)"><circle class="outline" cx="0" cy="0" r="25" fill="#569480" stroke="#447666" stroke-width="2px"/><text text-anchor="middle" pointer-events="none" font-family="sans-serif" dy="1.5625" font-size="25" fill="#FFFFFF"/><text text-anchor="middle" pointer-events="none" y="5" font-size="10px" fill="#FFFFFF" font-family="sans-serif"> docker0</text></g><g class="node" transform="translate(-156.80083302977215,120.86815388843004)"><circle class="outline" cx="0" cy="0" r="25" fill="#4C8EDA" stroke="#2870c2" stroke-width="2px"/><text text-anchor="middle" pointer-events="none" font-family="sans-serif" dy="1.5625" font-size="25" fill="#FFFFFF"/><text text-anchor="middle" pointer-events="none" y="5" font-size="10px" fill="#FFFFFF" font-family="sans-serif"> 7687</text></g><g class="node" transform="translate(403.8054676764336,95.5160626431584)"><circle class="outline" cx="0" cy="0" r="25" fill="#4C8EDA" stroke="#2870c2" stroke-width="2px"/><text text-anchor="middle" pointer-events="none" font-family="sans-serif" dy="1.5625" font-size="25" fill="#FFFFFF"/><text text-anchor="middle" pointer-events="none" y="5" font-size="10px" fill="#FFFFFF" font-family="sans-serif"> 80</text></g><g class="node" transform="translate(39.118066698963396,189.21294882328533)"><circle class="outline" cx="0" cy="0" r="25" fill="#4C8EDA" stroke="#2870c2" stroke-width="2px"/><text text-anchor="middle" pointer-events="none" font-family="sans-serif" dy="1.5625" font-size="25" fill="#FFFFFF"/><text text-anchor="middle" pointer-events="none" y="5" font-size="10px" fill="#FFFFFF" font-family="sans-serif"> 631</text></g><g class="node" transform="translate(-140.86084693064714,178.48765054190503)"><circle class="outline" cx="0" cy="0" r="25" fill="#4C8EDA" stroke="#2870c2" stroke-width="2px"/><text text-anchor="middle" pointer-events="none" font-family="sans-serif" dy="1.5625" font-size="25" fill="#FFFFFF"/><text text-anchor="middle" pointer-events="none" y="5" font-size="10px" fill="#FFFFFF" font-family="sans-serif"> 7473</text></g><g class="node" transform="translate(317.00486711118646,188.69302683928237)"><circle class="outline" cx="0" cy="0" r="25" fill="#4C8EDA" stroke="#2870c2" stroke-width="2px"/><text text-anchor="middle" pointer-events="none" font-family="sans-serif" dy="1.5625" font-size="25" fill="#FFFFFF"/><text text-anchor="middle" pointer-events="none" y="5" font-size="10px" fill="#FFFFFF" font-family="sans-serif"> 1716</text></g><g class="node" transform="translate(-192.75565742767483,208.05790963808442)"><circle class="outline" cx="0" cy="0" r="25" fill="#4C8EDA" stroke="#2870c2" stroke-width="2px"/><text text-anchor="middle" pointer-events="none" font-family="sans-serif" dy="1.5625" font-size="25" fill="#FFFFFF"/><text text-anchor="middle" pointer-events="none" y="5" font-size="10px" fill="#FFFFFF" font-family="sans-serif"> 7474</text></g><g class="node" transform="translate(749.9113540047441,-98.60430607137246)"><circle class="outline" cx="0" cy="0" r="25" fill="#569480" stroke="#447666" stroke-width="2px"/><text text-anchor="middle" pointer-events="none" font-family="sans-serif" dy="1.5625" font-size="25" fill="#FFFFFF"/><text text-anchor="middle" pointer-events="none" y="5" font-size="10px" fill="#FFFFFF" font-family="sans-serif"> br-0ba6…</text></g><g class="node" transform="translate(862.1239579164071,118.60040074795366)"><circle class="outline" cx="0" cy="0" r="25" fill="#4C8EDA" stroke="#2870c2" stroke-width="2px"/><text text-anchor="middle" pointer-events="none" font-family="sans-serif" dy="1.5625" font-size="25" fill="#FFFFFF"/><text text-anchor="middle" pointer-events="none" y="5" font-size="10px" fill="#FFFFFF" font-family="sans-serif"> 80</text></g><g class="node" transform="translate(267.2000400024,221.04952565605663)"><circle class="outline" cx="0" cy="0" r="25" fill="#4C8EDA" stroke="#2870c2" stroke-width="2px"/><text text-anchor="middle" pointer-events="none" font-family="sans-serif" dy="1.5625" font-size="25" fill="#FFFFFF"/><text text-anchor="middle" pointer-events="none" y="5" font-size="10px" fill="#FFFFFF" font-family="sans-serif"> 7474</text></g><g class="node" transform="translate(756.0849672237171,149.53811109323544)"><circle class="outline" cx="0" cy="0" r="25" fill="#4C8EDA" stroke="#2870c2" stroke-width="2px"/><text text-anchor="middle" pointer-events="none" font-family="sans-serif" dy="1.5625" font-size="25" fill="#FFFFFF"/><text text-anchor="middle" pointer-events="none" y="5" font-size="10px" fill="#FFFFFF" font-family="sans-serif"> 1716</text></g><g class="node" transform="translate(268.90713901121745,153.72775683457346)"><circle class="outline" cx="0" cy="0" r="25" fill="#4C8EDA" stroke="#2870c2" stroke-width="2px"/><text text-anchor="middle" pointer-events="none" font-family="sans-serif" dy="1.5625" font-size="25" fill="#FFFFFF"/><text text-anchor="middle" pointer-events="none" y="5" font-size="10px" fill="#FFFFFF" font-family="sans-serif"> 7687</text></g><g class="node" transform="translate(274.7964102030363,94.16658696764924)"><circle class="outline" cx="0" cy="0" r="25" fill="#4C8EDA" stroke="#2870c2" stroke-width="2px"/><text text-anchor="middle" pointer-events="none" font-family="sans-serif" dy="1.5625" font-size="25" fill="#FFFFFF"/><text text-anchor="middle" pointer-events="none" y="5" font-size="10px" fill="#FFFFFF" font-family="sans-serif"> 7473</text></g><g class="node" transform="translate(551.5179768905679,183.30606421417966)"><circle class="outline" cx="0" cy="0" r="25" fill="#4C8EDA" stroke="#2870c2" stroke-width="2px"/><text text-anchor="middle" pointer-events="none" font-family="sans-serif" dy="1.5625" font-size="25" fill="#FFFFFF"/><text text-anchor="middle" pointer-events="none" y="5" font-size="10px" fill="#FFFFFF" font-family="sans-serif"> 631</text></g><g class="node" transform="translate(1109.215664408444,-83.85621125381947)"><circle class="outline" cx="0" cy="0" r="25" fill="#569480" stroke="#447666" stroke-width="2px"/><text text-anchor="middle" pointer-events="none" font-family="sans-serif" dy="1.5625" font-size="25" fill="#FFFFFF"/><text text-anchor="middle" pointer-events="none" y="5" font-size="10px" fill="#FFFFFF" font-family="sans-serif"> br-7268…</text></g><g class="node" transform="translate(461.5907458582277,223.20908945228464)"><circle class="outline" cx="0" cy="0" r="25" fill="#4C8EDA" stroke="#2870c2" stroke-width="2px"/><text text-anchor="middle" pointer-events="none" font-family="sans-serif" dy="1.5625" font-size="25" fill="#FFFFFF"/><text text-anchor="middle" pointer-events="none" y="5" font-size="10px" fill="#FFFFFF" font-family="sans-serif"> 7474</text></g><g class="node" transform="translate(1024.414692340379,134.0136044991979)"><circle class="outline" cx="0" cy="0" r="25" fill="#4C8EDA" stroke="#2870c2" stroke-width="2px"/><text text-anchor="middle" pointer-events="none" font-family="sans-serif" dy="1.5625" font-size="25" fill="#FFFFFF"/><text text-anchor="middle" pointer-events="none" y="5" font-size="10px" fill="#FFFFFF" font-family="sans-serif"> 80</text></g><g class="node" transform="translate(432.8371548510546,170.66064169939327)"><circle class="outline" cx="0" cy="0" r="25" fill="#4C8EDA" stroke="#2870c2" stroke-width="2px"/><text text-anchor="middle" pointer-events="none" font-family="sans-serif" dy="1.5625" font-size="25" fill="#FFFFFF"/><text text-anchor="middle" pointer-events="none" y="5" font-size="10px" fill="#FFFFFF" font-family="sans-serif"> 7687</text></g><g class="node" transform="translate(702.5778474103954,176.39352609184866)"><circle class="outline" cx="0" cy="0" r="25" fill="#4C8EDA" stroke="#2870c2" stroke-width="2px"/><text text-anchor="middle" pointer-events="none" font-family="sans-serif" dy="1.5625" font-size="25" fill="#FFFFFF"/><text text-anchor="middle" pointer-events="none" y="5" font-size="10px" fill="#FFFFFF" font-family="sans-serif"> 631</text></g><g class="node" transform="translate(911.672311511889,152.38557849425038)"><circle class="outline" cx="0" cy="0" r="25" fill="#4C8EDA" stroke="#2870c2" stroke-width="2px"/><text text-anchor="middle" pointer-events="none" font-family="sans-serif" dy="1.5625" font-size="25" fill="#FFFFFF"/><text text-anchor="middle" pointer-events="none" y="5" font-size="10px" fill="#FFFFFF" font-family="sans-serif"> 1716</text></g><g class="node" transform="translate(492.30943452288426,171.8686932518922)"><circle class="outline" cx="0" cy="0" r="25" fill="#4C8EDA" stroke="#2870c2" stroke-width="2px"/><text text-anchor="middle" pointer-events="none" font-family="sans-serif" dy="1.5625" font-size="25" fill="#FFFFFF"/><text text-anchor="middle" pointer-events="none" y="5" font-size="10px" fill="#FFFFFF" font-family="sans-serif"> 7473</text></g><g class="node" transform="translate(544.0394595705363,-91.59664603367065)"><circle class="outline" cx="0" cy="0" r="25" fill="#569480" stroke="#447666" stroke-width="2px"/><text text-anchor="middle" pointer-events="none" font-family="sans-serif" dy="1.5625" font-size="25" fill="#FFFFFF"/><text text-anchor="middle" pointer-events="none" y="5" font-size="10px" fill="#FFFFFF" font-family="sans-serif"> br-667d…</text></g><g class="node" transform="translate(778.8098908472243,94.15019279690638)"><circle class="outline" cx="0" cy="0" r="25" fill="#4C8EDA" stroke="#2870c2" stroke-width="2px"/><text text-anchor="middle" pointer-events="none" font-family="sans-serif" dy="1.5625" font-size="25" fill="#FFFFFF"/><text text-anchor="middle" pointer-events="none" y="5" font-size="10px" fill="#FFFFFF" font-family="sans-serif"> 80</text></g><g class="node" transform="translate(459.49133244616974,117.10500279334326)"><circle class="outline" cx="0" cy="0" r="25" fill="#4C8EDA" stroke="#2870c2" stroke-width="2px"/><text text-anchor="middle" pointer-events="none" font-family="sans-serif" dy="1.5625" font-size="25" fill="#FFFFFF"/><text text-anchor="middle" pointer-events="none" y="5" font-size="10px" fill="#FFFFFF" font-family="sans-serif"> 631</text></g><g class="node" transform="translate(202.76363650582624,228.57074268725648)"><circle class="outline" cx="0" cy="0" r="25" fill="#4C8EDA" stroke="#2870c2" stroke-width="2px"/><text text-anchor="middle" pointer-events="none" font-family="sans-serif" dy="1.5625" font-size="25" fill="#FFFFFF"/><text text-anchor="middle" pointer-events="none" y="5" font-size="10px" fill="#FFFFFF" font-family="sans-serif"> 7687</text></g><g class="node" transform="translate(153.03515323637123,123.20199926499433)"><circle class="outline" cx="0" cy="0" r="25" fill="#4C8EDA" stroke="#2870c2" stroke-width="2px"/><text text-anchor="middle" pointer-events="none" font-family="sans-serif" dy="1.5625" font-size="25" fill="#FFFFFF"/><text text-anchor="middle" pointer-events="none" y="5" font-size="10px" fill="#FFFFFF" font-family="sans-serif"> 7474</text></g><g class="node" transform="translate(633.7880546528936,142.6788840371549)"><circle class="outline" cx="0" cy="0" r="25" fill="#4C8EDA" stroke="#2870c2" stroke-width="2px"/><text text-anchor="middle" pointer-events="none" font-family="sans-serif" dy="1.5625" font-size="25" fill="#FFFFFF"/><text text-anchor="middle" pointer-events="none" y="5" font-size="10px" fill="#FFFFFF" font-family="sans-serif"> 1716</text></g><g class="node" transform="translate(165.66957681623634,181.77502255091338)"><circle class="outline" cx="0" cy="0" r="25" fill="#4C8EDA" stroke="#2870c2" stroke-width="2px"/><text text-anchor="middle" pointer-events="none" font-family="sans-serif" dy="1.5625" font-size="25" fill="#FFFFFF"/><text text-anchor="middle" pointer-events="none" y="5" font-size="10px" fill="#FFFFFF" font-family="sans-serif"> 7473</text></g><g class="node" transform="translate(-668.648291666433,-80.2793049240901)"><circle class="outline" cx="0" cy="0" r="25" fill="#569480" stroke="#447666" stroke-width="2px"/><text text-anchor="middle" pointer-events="none" font-family="sans-serif" dy="1.5625" font-size="25" fill="#FFFFFF"/><text text-anchor="middle" pointer-events="none" y="5" font-size="10px" fill="#FFFFFF" font-family="sans-serif"> lo</text></g><g class="node" transform="translate(-421.07550563991003,202.47165807761598)"><circle class="outline" cx="0" cy="0" r="25" fill="#4C8EDA" stroke="#2870c2" stroke-width="2px"/><text text-anchor="middle" pointer-events="none" font-family="sans-serif" dy="1.5625" font-size="25" fill="#FFFFFF"/><text text-anchor="middle" pointer-events="none" y="5" font-size="10px" fill="#FFFFFF" font-family="sans-serif"> 7474</text></g><g class="node" transform="translate(-385.00792544416254,105.30879990165754)"><circle class="outline" cx="0" cy="0" r="25" fill="#4C8EDA" stroke="#2870c2" stroke-width="2px"/><text text-anchor="middle" pointer-events="none" font-family="sans-serif" dy="1.5625" font-size="25" fill="#FFFFFF"/><text text-anchor="middle" pointer-events="none" y="5" font-size="10px" fill="#FFFFFF" font-family="sans-serif"> 7473</text></g><g class="node" transform="translate(-431.0541498824602,143.53151391477778)"><circle class="outline" cx="0" cy="0" r="25" fill="#4C8EDA" stroke="#2870c2" stroke-width="2px"/><text text-anchor="middle" pointer-events="none" font-family="sans-serif" dy="1.5625" font-size="25" fill="#FFFFFF"/><text text-anchor="middle" pointer-events="none" y="5" font-size="10px" fill="#FFFFFF" font-family="sans-serif"> 7687</text></g><g class="node" transform="translate(119.24501758250241,73.79066495996737)"><circle class="outline" cx="0" cy="0" r="25" fill="#4C8EDA" stroke="#2870c2" stroke-width="2px"/><text text-anchor="middle" pointer-events="none" font-family="sans-serif" dy="1.5625" font-size="25" fill="#FFFFFF"/><text text-anchor="middle" pointer-events="none" y="5" font-size="10px" fill="#FFFFFF" font-family="sans-serif"> 80</text></g><g class="node" transform="translate(-2.7767529450334814,87.04156117270912)"><circle class="outline" cx="0" cy="0" r="25" fill="#4C8EDA" stroke="#2870c2" stroke-width="2px"/><text text-anchor="middle" pointer-events="none" font-family="sans-serif" dy="1.5625" font-size="25" fill="#FFFFFF"/><text text-anchor="middle" pointer-events="none" y="5" font-size="10px" fill="#FFFFFF" font-family="sans-serif"> 1716</text></g><g class="node" transform="translate(-375.18096040847684,164.28659218486789)"><circle class="outline" cx="0" cy="0" r="25" fill="#4C8EDA" stroke="#2870c2" stroke-width="2px"/><text text-anchor="middle" pointer-events="none" font-family="sans-serif" dy="1.5625" font-size="25" fill="#FFFFFF"/><text text-anchor="middle" pointer-events="none" y="5" font-size="10px" fill="#FFFFFF" font-family="sans-serif"> 6362</text></g><g class="node" transform="translate(-574.0602891758463,64.56041478670033)"><circle class="outline" cx="0" cy="0" r="25" fill="#4C8EDA" stroke="#2870c2" stroke-width="2px"/><text text-anchor="middle" pointer-events="none" font-family="sans-serif" dy="1.5625" font-size="25" fill="#FFFFFF"/><text text-anchor="middle" pointer-events="none" y="5" font-size="10px" fill="#FFFFFF" font-family="sans-serif"> 3306</text></g><g class="node" transform="translate(-411.40433602331325,358.296519911237)"><circle class="outline" cx="0" cy="0" r="25" fill="#8DCC93" stroke="#5db665" stroke-width="2px"/><text text-anchor="middle" pointer-events="none" font-family="sans-serif" dy="1.5625" font-size="25" fill="#604A0E"/><text text-anchor="middle" pointer-events="none" y="5" font-size="10px" fill="#604A0E" font-family="sans-serif"> mysqld</text></g><g class="node" transform="translate(-640.2655366743155,104.18370757489613)"><circle class="outline" cx="0" cy="0" r="25" fill="#4C8EDA" stroke="#2870c2" stroke-width="2px"/><text text-anchor="middle" pointer-events="none" font-family="sans-serif" dy="1.5625" font-size="25" fill="#FFFFFF"/><text text-anchor="middle" pointer-events="none" y="5" font-size="10px" fill="#FFFFFF" font-family="sans-serif"> 5432</text></g><g class="node" transform="translate(-582.8903502857514,365.9186051551679)"><circle class="outline" cx="0" cy="0" r="25" fill="#8DCC93" stroke="#5db665" stroke-width="2px"/><text text-anchor="middle" pointer-events="none" font-family="sans-serif" dy="1.5625" font-size="25" fill="#604A0E"/><text text-anchor="middle" pointer-events="none" y="5" font-size="10px" fill="#604A0E" font-family="sans-serif"> postgres</text></g><g class="node" transform="translate(-208.92405172874217,150.2571199645705)"><circle class="outline" cx="0" cy="0" r="25" fill="#4C8EDA" stroke="#2870c2" stroke-width="2px"/><text text-anchor="middle" pointer-events="none" font-family="sans-serif" dy="1.5625" font-size="25" fill="#FFFFFF"/><text text-anchor="middle" pointer-events="none" y="5" font-size="10px" fill="#FFFFFF" font-family="sans-serif"> 631</text></g><g class="node" transform="translate(-336.59887282797933,-86.32500919186867)"><circle class="outline" cx="0" cy="0" r="25" fill="#569480" stroke="#447666" stroke-width="2px"/><text text-anchor="middle" pointer-events="none" font-family="sans-serif" dy="1.5625" font-size="25" fill="#FFFFFF"/><text text-anchor="middle" pointer-events="none" y="5" font-size="10px" fill="#FFFFFF" font-family="sans-serif"> wlp58s0</text></g><g class="node" transform="translate(209.74603675481592,141.5882500872135)"><circle class="outline" cx="0" cy="0" r="25" fill="#4C8EDA" stroke="#2870c2" stroke-width="2px"/><text text-anchor="middle" pointer-events="none" font-family="sans-serif" dy="1.5625" font-size="25" fill="#FFFFFF"/><text text-anchor="middle" pointer-events="none" y="5" font-size="10px" fill="#FFFFFF" font-family="sans-serif"> 1716</text></g><g class="node" transform="translate(-274.2863624176592,149.4988382753633)"><circle class="outline" cx="0" cy="0" r="25" fill="#4C8EDA" stroke="#2870c2" stroke-width="2px"/><text text-anchor="middle" pointer-events="none" font-family="sans-serif" dy="1.5625" font-size="25" fill="#FFFFFF"/><text text-anchor="middle" pointer-events="none" y="5" font-size="10px" fill="#FFFFFF" font-family="sans-serif"> 7474</text></g><g class="node" transform="translate(-23.029918784618676,143.43691928929843)"><circle class="outline" cx="0" cy="0" r="25" fill="#4C8EDA" stroke="#2870c2" stroke-width="2px"/><text text-anchor="middle" pointer-events="none" font-family="sans-serif" dy="1.5625" font-size="25" fill="#FFFFFF"/><text text-anchor="middle" pointer-events="none" y="5" font-size="10px" fill="#FFFFFF" font-family="sans-serif"> 631</text></g><g class="node" transform="translate(-263.20315729833646,208.16190258118937)"><circle class="outline" cx="0" cy="0" r="25" fill="#4C8EDA" stroke="#2870c2" stroke-width="2px"/><text text-anchor="middle" pointer-events="none" font-family="sans-serif" dy="1.5625" font-size="25" fill="#FFFFFF"/><text text-anchor="middle" pointer-events="none" y="5" font-size="10px" fill="#FFFFFF" font-family="sans-serif"> 7473</text></g><g class="node" transform="translate(332.6024876716026,78.135069270572)"><circle class="outline" cx="0" cy="0" r="25" fill="#4C8EDA" stroke="#2870c2" stroke-width="2px"/><text text-anchor="middle" pointer-events="none" font-family="sans-serif" dy="1.5625" font-size="25" fill="#FFFFFF"/><text text-anchor="middle" pointer-events="none" y="5" font-size="10px" fill="#FFFFFF" font-family="sans-serif"> 80</text></g><g class="node" transform="translate(-240.92052894595778,99.82985280957455)"><circle class="outline" cx="0" cy="0" r="25" fill="#4C8EDA" stroke="#2870c2" stroke-width="2px"/><text text-anchor="middle" pointer-events="none" font-family="sans-serif" dy="1.5625" font-size="25" fill="#FFFFFF"/><text text-anchor="middle" pointer-events="none" y="5" font-size="10px" fill="#FFFFFF" font-family="sans-serif"> 7687</text></g></g></svg>